<svg width="135" height="229" viewBox="0 0 135 229" fill="none" xmlns="http://www.w3.org/2000/svg">
<path d="M112.099 228.784C111.75 228.784 111.568 228.588 111.582 228.203C111.611 227.308 111.609 226.406 111.716 225.519C111.991 223.212 111.657 220.979 110.99 218.782C110.887 218.444 110.536 218.184 110.43 217.847C110.312 217.474 110.36 217.051 110.309 216.654C110.196 215.765 110.105 214.871 109.939 213.993C109.578 212.102 109.27 210.196 108.858 208.324C108.539 206.871 108.185 205.443 108.154 203.956C108.127 202.65 108.076 201.34 108.161 200.039C108.238 198.844 108.514 197.67 108.878 196.517C109.068 195.915 109.321 195.275 109.061 194.597L109.2 194.131C109.469 193.464 109.746 192.802 110.011 192.132C110.163 191.747 110.259 191.338 110.442 190.972C111.693 188.494 113.281 186.225 115.203 184.247C116.685 182.724 118.386 181.397 120.084 180.107C121.203 179.258 122.482 178.616 123.707 177.918C124.092 177.699 124.537 177.579 124.96 177.439C125.68 177.199 126.402 176.968 127.13 176.753C128.283 176.41 129.425 175.989 130.602 175.775C131.884 175.541 133.198 175.479 134.502 175.394C134.506 175.394 134.511 175.394 134.514 175.392V176.347C134.453 176.342 134.391 176.34 134.329 176.34C134.023 176.34 133.723 176.39 133.427 176.434C133.145 176.477 132.859 176.635 132.589 176.635C132.567 176.635 132.546 176.635 132.524 176.631C132.31 176.611 132.098 176.6 131.889 176.6C129.787 176.6 127.937 177.595 125.998 178.236C125.381 178.443 124.735 178.57 124.128 178.801C123.77 178.936 123.461 179.203 123.13 179.41L123.211 179.604C123.433 179.585 123.657 179.581 123.875 179.54C125.091 179.318 126.349 179.215 127.513 178.828C129.224 178.26 130.992 178.062 132.736 177.706C133.34 177.584 133.929 177.388 134.514 177.186V179.376C133.804 179.879 133.448 180.678 132.979 181.372C132.854 181.555 132.919 182.005 133.066 182.212C133.539 182.878 134.021 183.536 134.514 184.188V185.516C133.886 184.75 133.258 183.985 132.63 183.22C132.483 183.04 132.313 182.879 132.156 182.713C131.271 183.502 131.122 184.204 131.478 185.2C131.935 186.482 132.609 187.592 133.528 188.616C133.874 189.001 134.199 189.406 134.514 189.822V191.427C134.429 191.316 134.343 191.205 134.259 191.095C133.59 190.223 132.959 189.322 132.332 188.422C131.882 187.777 131.461 187.117 131.043 186.451C130.936 186.28 130.913 186.056 130.814 185.878L130.491 185.518C129.197 186.629 129.038 187.019 129.697 188.364C130.159 189.314 130.802 190.176 131.381 191.068C131.605 191.414 131.882 191.723 132.122 192.061C132.919 193.182 133.718 194.304 134.514 195.427V197.22C134.497 197.195 134.48 197.169 134.463 197.143C133.694 196 132.888 194.884 132.113 193.746C130.932 192.016 129.765 190.279 128.547 188.474C128.396 188.611 128.211 188.741 128.076 188.912C127.951 189.071 127.895 189.283 127.782 189.456C127.025 190.623 127.061 191.554 128.049 192.742C129.276 194.214 130.376 195.803 131.595 197.301C132.623 198.56 133.571 199.883 134.514 201.211V202.729C134.014 201.974 133.501 201.221 132.965 200.484C131.67 198.706 130.246 197.02 128.891 195.287C128.511 194.799 128.175 194.275 127.806 193.779C127.419 193.262 127.015 192.757 126.625 192.254C125.625 192.985 125.292 194.101 125.639 195.1C126.481 197.513 127.989 199.515 129.496 201.526C130.941 203.453 132.344 205.413 133.766 207.357C134.004 207.684 134.249 208.004 134.487 208.325C134.497 208.318 134.506 208.312 134.514 208.305V210.177C134.191 210.56 133.862 210.94 133.534 211.325C132.587 212.434 131.518 213.382 130.275 214.146C128.899 214.993 127.588 215.966 126.156 216.702C123.854 217.885 121.576 219.097 119.586 220.758C118.321 221.814 117.051 222.904 115.996 224.157C114.849 225.516 113.68 226.907 113.079 228.692C112.713 228.726 112.474 228.745 112.236 228.774C112.188 228.781 112.142 228.784 112.099 228.784ZM114.377 221.278C113.858 222.199 113.702 223.493 113.925 224.732C114.606 224.133 115.077 223.455 115.458 222.596C115.113 222.174 114.763 221.747 114.377 221.278ZM115.212 217.392C114.712 218.222 114.623 219.004 114.532 219.772C114.507 219.98 114.647 220.238 114.779 220.425C115.196 221.005 115.646 221.563 116.102 222.151C116.826 221.912 117.163 221.308 117.618 220.832C117.103 219.454 116.163 218.492 115.212 217.392ZM117.022 211.964C116.358 212.989 115.881 214.128 115.763 215.299C115.696 215.966 116.136 216.761 116.533 217.38C117.103 218.27 117.842 219.052 118.599 219.99C119.545 219.276 120.44 218.602 121.308 217.948C121.046 217.089 117.704 212.439 117.022 211.964ZM114.026 216.586C113.583 216.783 113.331 216.882 113.09 217.002C111.81 217.638 111.674 218.041 112.359 219.322C112.446 219.485 112.708 219.649 112.888 219.649H112.901C113.086 219.641 113.372 219.446 113.418 219.278C113.643 218.458 113.802 217.62 114.026 216.586ZM120.212 205.88C120.034 205.964 119.944 205.974 119.916 206.022C119.22 207.206 118.53 208.39 117.84 209.578C117.519 210.134 117.508 210.689 117.89 211.226C119.021 212.821 120.144 214.426 121.297 216.006C121.617 216.446 122.032 216.815 122.482 217.303C123.51 216.742 124.439 216.223 125.381 215.727C125.81 215.499 125.896 215.164 125.677 214.782C124.77 213.201 123.856 211.621 122.911 210.064C122.324 209.097 121.674 208.168 121.058 207.218C120.767 206.77 120.486 206.316 120.212 205.88ZM115.611 212.006C115.352 212.077 115.128 212.101 114.938 212.195C113.949 212.682 112.949 213.151 111.991 213.695C111.058 214.224 111.004 214.416 111.194 215.456C111.267 215.855 111.387 216.244 111.538 216.85C112.149 216.47 112.585 216.208 113.011 215.931C113.242 215.782 113.441 215.501 113.684 215.462C114.678 215.306 114.832 214.507 115.073 213.767C115.253 213.216 115.412 212.658 115.611 212.006ZM122.579 200.629C122.403 200.854 122.281 200.97 122.208 201.11C121.741 201.992 121.306 202.89 120.816 203.759C120.55 204.232 120.531 204.61 120.84 205.089C121.289 205.775 121.614 206.542 122.033 207.251C122.434 207.93 122.887 208.579 123.32 209.239C123.864 210.073 124.4 210.909 124.96 211.731C125.637 212.722 126.336 213.697 127.128 214.825C128.316 214.067 129.548 213.319 130.734 212.504C131.286 212.126 131.304 211.864 130.982 211.26C130.806 210.93 130.566 210.63 130.333 210.334C129.118 208.798 127.91 207.256 126.669 205.736C125.694 204.54 124.665 203.386 123.683 202.194C123.298 201.725 122.978 201.201 122.579 200.629ZM118.498 206.234C117.967 206.234 117.592 206.47 117.224 206.672C115.746 207.478 114.264 208.276 112.811 209.123C112.082 209.549 111.394 210.052 110.723 210.567C110.574 210.68 110.487 211.002 110.519 211.204C110.622 211.837 110.795 212.458 110.957 213.158C111.332 213.006 111.621 212.913 111.887 212.775C112.92 212.232 113.959 211.697 114.972 211.118C115.883 210.6 116.608 209.91 117.031 208.9C117.264 208.341 117.693 207.867 118.017 207.343C118.212 207.025 118.369 206.684 118.607 206.237C118.569 206.234 118.534 206.234 118.498 206.234ZM124.949 195.673C124 196.637 123.43 197.698 123.093 198.889C123.041 199.069 123.074 199.312 123.158 199.481C123.909 200.992 124.72 202.449 125.981 203.633C126.75 204.357 127.371 205.241 128.03 206.078C129.327 207.725 130.604 209.388 131.892 211.041L132.118 211.168C132.693 210.824 133.159 210.321 133.515 209.744C133.799 209.282 133.554 208.789 133.304 208.385C132.692 207.391 132.053 206.407 131.382 205.45C129.526 202.806 127.629 200.19 125.79 197.534C125.43 197.015 125.254 196.366 124.949 195.673ZM121.231 200.576C120.917 200.65 120.681 200.657 120.496 200.758C119.439 201.333 118.371 201.896 117.348 202.529C115.451 203.705 113.329 204.31 111.25 205.033C109.316 205.703 109.316 205.698 109.872 207.629C110.033 208.187 110.182 208.75 110.362 209.4C112.717 208.111 114.981 206.881 117.236 205.637C117.839 205.305 118.433 204.952 119.002 204.567C119.28 204.379 119.555 204.132 119.72 203.847C120.18 203.042 120.591 202.207 121.003 201.374C121.106 201.167 121.135 200.925 121.231 200.576ZM123.466 195.742C123.067 195.879 122.793 195.939 122.55 196.06C120.524 197.082 118.516 198.143 116.475 199.132C115.27 199.714 114.004 200.166 112.783 200.718C111.909 201.114 111.038 201.533 110.215 202.024C109.07 202.71 108.993 203.024 109.405 204.533C111.046 204.066 112.676 203.732 114.199 203.131C115.496 202.62 116.666 201.788 117.904 201.119C119.052 200.499 120.221 199.916 121.369 199.293C121.623 199.154 121.903 198.957 122.032 198.714C122.509 197.807 122.928 196.869 123.466 195.742ZM125.17 191.79C124.564 192.023 123.947 192.227 123.354 192.492C120.81 193.633 118.282 194.812 115.727 195.937C114.152 196.632 112.544 197.248 110.951 197.901C109.441 198.523 108.917 199.536 109.219 201.252L109.407 201.29C111.459 200.068 113.709 199.303 115.9 198.391C117.77 197.609 119.555 196.623 121.376 195.725C121.963 195.435 122.53 195.093 123.134 194.848C124.467 194.309 124.941 193.171 125.343 191.966L125.17 191.79ZM127.421 188.133C126.568 188.47 125.877 188.677 125.247 189.004C123.305 190.016 121.203 190.565 119.131 191.207C118.64 191.359 118.181 191.609 117.702 191.806C116.399 192.34 115.102 192.891 113.788 193.392C112.792 193.77 111.767 194.068 110.767 194.431C110.6 194.491 110.412 194.682 110.367 194.85C110.182 195.533 110.052 196.228 109.864 197.092C110.324 196.955 110.586 196.907 110.824 196.806C114.883 195.078 118.939 193.342 122.997 191.609C123.789 191.27 124.561 190.873 125.376 190.604C126.483 190.236 127.006 189.422 127.421 188.133ZM128.817 185.075C128.781 185.075 128.747 185.078 128.713 185.087C127.034 185.462 125.353 185.836 123.68 186.235C121.975 186.642 120.274 187.057 118.578 187.5C116.783 187.969 115 188.486 113.204 188.958C112.77 189.074 112.47 189.293 112.273 189.694C111.892 190.464 111.478 191.217 111.113 191.996C110.973 192.29 110.932 192.632 110.79 193.158C111.291 193.086 111.57 193.094 111.811 193.002C113.704 192.278 115.587 191.525 117.479 190.798C118.28 190.491 119.102 190.24 119.908 189.945C121.91 189.213 123.912 188.479 125.908 187.727C126.358 187.56 126.763 187.243 127.224 187.135C128.29 186.882 128.743 186.069 129.272 185.126C129.079 185.109 128.937 185.075 128.817 185.075ZM116.918 184.43C116.117 184.43 115.708 185.065 115.263 185.645C114.811 186.23 114.363 186.819 113.913 187.406L114.086 187.625C114.878 187.426 115.669 187.223 116.463 187.028C118.836 186.447 121.208 185.862 123.587 185.296C125.326 184.883 127.073 184.514 128.814 184.105C130.261 183.762 130.279 183.733 131.014 182.249C130.838 182.224 130.676 182.169 130.525 182.169C130.499 182.169 130.472 182.171 130.446 182.174C128.812 182.422 127.183 182.71 125.545 182.941C124.422 183.098 123.276 183.114 122.163 183.317C120.64 183.598 119.138 183.997 117.627 184.346L117.233 184.459C117.122 184.438 117.017 184.43 116.918 184.43ZM134.033 178.37C132.71 178.577 131.5 178.769 130.292 178.957C130.123 178.984 129.938 178.972 129.782 179.036C127.622 179.915 125.281 180.009 123.057 180.607C121.227 181.096 119.459 181.739 118.063 183.23C118.544 183.133 119.025 183.016 119.509 182.941C121.342 182.65 123.176 182.38 125.008 182.089C127.249 181.733 129.491 181.365 131.731 180.995C131.894 180.968 132.106 180.92 132.195 180.805C132.82 180.011 133.415 179.195 134.033 178.37Z" fill="#9ED4F1"/>
<path d="M107.713 147.525C107.613 147.525 107.512 147.513 107.408 147.489C107.17 147.06 107.314 146.748 107.535 146.401C108.404 145.037 109.301 143.694 109.729 142.09C109.89 141.484 110.163 140.952 109.573 140.264C110.74 140.206 110.802 139.359 111.028 138.654C111.18 138.169 111.26 137.661 111.39 137.168C111.594 136.403 111.878 135.652 112.01 134.875C112.251 133.451 112.386 132.007 112.607 130.578C112.725 129.798 112.876 129.014 113.1 128.257C113.884 125.622 115.102 123.202 116.774 121.011C118.178 119.177 119.518 117.288 121.267 115.753C121.83 115.258 122.531 114.921 123.11 114.44C124.467 113.307 125.93 112.355 127.52 111.585C128.692 111.019 129.839 110.401 130.987 109.812C130.855 109.366 130.708 108.982 130.635 108.584C130.518 107.962 130.181 107.536 129.668 107.182C129.103 106.792 128.497 106.409 128.059 105.893C127.546 105.293 126.928 105.171 126.277 105.171C126.127 105.171 125.976 105.178 125.824 105.187C125.348 105.214 124.883 105.39 124.41 105.488C124.087 105.555 123.76 105.657 123.437 105.657C123.423 105.657 123.409 105.656 123.395 105.656C122.889 105.642 122.68 105.197 122.947 104.778L123.231 104.476C124.037 103.715 123.864 102.789 123.644 101.87L123.31 101.507C122.28 100.958 121.255 100.398 120.2 99.8969C118.811 99.2363 117.313 99.0326 115.801 99.0326C115.722 99.0326 115.643 99.0326 115.563 99.0343H115.527C114.895 99.0343 114.628 98.7879 114.484 98.141C116.362 97.2905 117.955 96.1302 118.813 94.3487C118.773 93.8267 118.72 93.3989 118.712 92.971C118.703 92.2813 118.446 91.6944 118.01 91.181C117.811 90.9448 117.536 90.7685 117.36 90.5187C117.216 90.3167 117.17 90.0446 117.081 89.8033C117.303 89.7263 117.536 89.5672 117.746 89.5672C117.765 89.5672 117.782 89.5689 117.801 89.5706C117.94 89.5911 118.075 89.5997 118.207 89.5997C119.054 89.5997 119.817 89.2369 120.599 88.9767C120.804 88.91 121.06 88.5951 121.06 88.3932C121.06 87.4862 120.977 86.5774 120.921 85.6362C118.611 86.1872 116.346 86.7588 114.016 86.7588C113.449 86.7588 112.878 86.7246 112.301 86.6493C110.903 86.4645 109.472 86.5295 108.113 86.0623C106.486 85.5027 104.839 84.9927 103.234 84.3749C99.6899 83.0093 96.5222 81.0104 93.6403 78.5461C91.4429 76.6653 90.1371 74.1428 88.7184 71.7024L88.5969 71.3088C88.1828 69.4947 87.8268 67.667 87.3494 65.8701C86.6939 63.4092 86.8616 60.9397 87.1611 58.472C87.2997 57.3134 87.5411 56.1582 87.8388 55.0287C88.2222 53.5741 89.0761 52.3316 89.9061 51.1114C91.2238 49.1776 92.6443 47.3174 94.0253 45.4263C94.5319 44.7315 95.0504 44.0436 95.5536 43.3453C95.6528 43.2084 95.7024 43.0339 95.8359 42.7412C95.5484 42.8354 95.4201 42.8662 95.3003 42.9175C93.6249 43.6414 91.9512 44.3687 90.2775 45.0943C89.5519 45.4092 88.8331 45.7446 88.0955 46.0287C87.1303 46.4035 86.1651 46.78 85.176 47.0761C83.9558 47.4406 82.7167 47.7452 81.476 48.0379C79.5319 48.4965 77.5792 48.9175 75.6317 49.3659C74.338 49.6654 72.9912 49.8314 71.9421 50.7863C71.8189 50.8975 71.5912 50.942 71.4047 50.942C71.3927 50.942 71.3791 50.9403 71.3654 50.9403C71.2952 50.9386 71.225 50.9369 71.1549 50.9369C69.5325 50.9369 68.071 51.5359 66.6129 52.1639C65.3175 52.7235 64.0083 53.254 62.6974 53.7743C62.0248 54.043 61.3249 54.2364 60.654 54.5068C58.3865 55.4172 56.1686 56.4389 54.0722 57.6984C52.4772 58.6568 50.8942 59.6357 49.2975 60.5872C48.411 61.1177 47.5091 61.6243 46.6056 62.124C45.7636 62.5912 44.9011 63.0207 44.066 63.4982C43.852 63.6197 43.7083 63.8593 43.467 64.1143C43.8554 64.3573 44.1498 64.5267 44.4287 64.7184C45.192 65.242 46.0426 65.6819 46.6912 66.3236C48.2314 67.8484 49.7647 69.3972 51.1287 71.0795C52.2479 72.4622 53.2644 73.9545 53.9045 75.6642C54.3734 76.9186 54.9638 78.1268 55.4875 79.3624C55.5542 79.5147 55.5491 79.6978 55.5833 79.8672C56.0197 82.0389 56.0745 84.2055 55.7613 86.4114C55.5029 88.2306 55.2736 90.0309 54.3854 91.6772C53.6632 93.0207 52.8178 94.2751 51.7054 95.3293C49.3831 97.5352 46.8794 99.5546 44.7847 101.998C43.8195 103.123 42.7037 104.158 41.9438 105.407C40.9136 107.1 39.8475 108.823 39.6028 110.88C39.5702 111.158 39.4282 111.3 39.2417 111.3C39.1253 111.3 38.9901 111.245 38.8531 111.134C38.5879 110.921 38.3534 110.67 38.1002 110.43C38.1669 109.925 38.362 109.397 38.2799 108.914C37.9581 106.992 37.2958 105.18 36.0636 103.643C35.6392 103.112 35.2268 102.596 34.8845 102C34.2308 100.869 33.4795 99.7976 32.8001 98.6818C31.1435 95.9642 30.4881 92.9368 30.2571 89.8221C30.0637 87.1935 30.8235 84.7018 31.7151 82.2597C32.6187 79.7885 33.9929 77.5518 35.3072 75.2894C36.969 72.4263 38.6255 69.5615 40.277 66.695C40.3814 66.5136 40.4225 66.2945 40.4926 66.0943C37.8777 67.1434 35.9045 69.0601 33.6267 70.5147C31.3352 71.9796 28.9102 73.2221 26.7573 74.9214C24.4556 76.7406 20.4972 79.0749 19.8521 79.181L20.0728 78.8182C21.1698 77.8752 22.2291 76.8843 23.3843 76.0201C25.2069 74.6613 27.0722 73.3555 28.9616 72.0926C30.394 71.1342 31.9034 70.2905 33.3615 69.3732C34.1196 68.8958 34.84 68.3584 35.5862 67.8621C38.2816 66.0652 40.9376 64.2016 43.6946 62.5056C45.7739 61.2272 47.9849 60.1782 50.0642 58.8758C52.5987 57.286 55.2684 55.881 57.9775 54.6026C60.2159 53.545 62.5981 52.8005 64.9067 51.8884C65.5382 51.6402 66.1304 51.2911 66.7413 50.9882C65.9233 50.8256 65.1583 50.8034 64.4002 50.8034H64.1007C63.5787 50.8068 63.0568 50.8274 62.5365 50.8274C62.3688 50.8274 62.1994 50.8256 62.0317 50.8188C59.3842 50.7281 56.7333 50.6579 54.0893 50.5022C52.5799 50.4149 51.0585 50.2797 49.5799 49.9837C47.4219 49.5507 45.2964 48.95 43.1555 48.428C42.5189 48.274 41.8652 48.1782 41.2405 47.9865C40.2873 47.6922 39.4282 47.2164 38.6546 46.4703C38.8463 46.3419 39.0209 46.2974 39.1852 46.2974C39.4453 46.2974 39.678 46.4087 39.9108 46.4737C40.7066 46.6927 41.4921 46.9477 42.293 47.1428C44.2371 47.6186 46.1914 48.0413 48.1304 48.5359C50.1104 49.0407 52.1161 49.3248 54.1561 49.395C56.7402 49.4822 59.3243 49.6037 61.9102 49.6585C62.7351 49.6756 63.5616 49.6893 64.3882 49.6893C66.7721 49.6893 69.1526 49.5729 71.4937 49.0852C75.7122 48.209 79.905 47.213 84.0978 46.2187C85.1674 45.9654 86.1976 45.5427 87.2364 45.1713C87.5787 45.0498 87.8919 44.8496 88.2187 44.6853C88.039 44.6443 87.8662 44.6289 87.6985 44.6289C87.4863 44.6289 87.2826 44.6528 87.0773 44.6733C85.7766 44.8051 84.476 45.0327 83.1737 45.043H82.8896C81.8918 45.043 80.8941 45.0105 79.8964 44.978C78.9004 44.9437 77.9061 44.9112 76.9119 44.9112C76.4138 44.9112 75.9141 44.9198 75.4161 44.9403C75.091 44.954 74.7658 44.9609 74.4407 44.9609C72.1663 44.9609 69.9433 44.6391 67.7151 44.2198C66.5907 44.0076 65.5177 43.6927 64.5148 43.0989C62.966 42.1816 61.407 41.278 60.3238 39.796C59.3791 38.5091 58.1777 37.4771 57.0944 36.3288C56.4612 35.6545 55.8383 34.9238 55.4105 34.1143C54.5428 32.4731 53.7282 30.7909 53.042 29.0676C52.0956 26.6888 51.832 24.1834 52.1401 21.6437C52.3814 19.6671 52.7065 17.7025 52.9957 15.7327L53.0539 15.4281C53.4561 14.516 53.836 13.5918 54.2793 12.7002C54.6951 11.8702 55.1726 11.0676 55.6364 10.2616C56.3449 9.03109 57.0825 7.79892 58.2445 6.95523C60.3666 5.41501 62.5981 4.07331 65.1206 3.23988C67.7133 2.3825 70.33 1.61581 73.0151 1.14519C74.2661 0.926139 75.5222 0.81148 76.7766 0.81148C78.233 0.81148 79.6894 0.965505 81.1389 1.29066C81.3494 1.33687 81.5702 1.42757 81.8046 1.42757C81.9757 1.42757 82.152 1.37965 82.3368 1.23076C81.962 0.922722 81.5958 0.616385 81.233 0.313477H83.1686C84.5308 1.35569 85.9974 2.08644 87.8028 2.08644H87.8918C88.8656 2.08644 89.8514 2.261 90.8114 2.46123C92.1925 2.75216 93.5513 3.14919 94.9221 3.48632C95.1702 3.54622 95.4337 3.53423 95.9163 3.57359C95.3396 2.8805 94.9323 2.33287 94.4669 1.84C93.9825 1.3266 93.4965 0.814902 92.9985 0.313477H94.2632C94.6141 0.600983 94.9615 0.891912 95.2883 1.20509C96.1526 2.03509 96.9483 2.94382 97.727 3.85768C98.4919 4.75442 99.4828 5.30719 100.534 5.73332C101.632 6.17998 102.623 6.7413 103.547 7.49429C104.37 8.16514 105.324 8.67513 106.236 9.22618C107.119 9.7567 108.034 10.2359 108.917 10.7647C109.121 10.8862 109.256 11.1206 109.35 11.4133C108.514 11.3003 107.814 10.9119 107.085 10.5764C105.262 9.73788 103.725 8.45436 102.031 7.42071C100.831 6.68996 99.4931 6.19368 98.2661 5.50401C97.039 4.81433 95.7161 4.51484 94.3625 4.2376C93.0841 3.97576 91.8485 3.4983 90.5667 3.27241C89.0453 3.00543 87.4931 2.9113 85.9563 2.73675C85.4138 2.67514 84.873 2.59299 84.3305 2.52454C83.5125 2.42015 82.6894 2.32774 81.8696 2.21821C80.812 2.07788 79.7595 1.87252 78.6968 1.7938C78.0311 1.74588 77.362 1.71336 76.6928 1.71336C76.2598 1.71336 75.8268 1.72705 75.3956 1.75957C72.5599 1.96835 69.8508 2.77269 67.1469 3.60612C65.6255 4.07674 64.1349 4.60554 62.7384 5.3688C61.1674 6.22619 59.5844 7.07501 58.3146 8.37735C58.0374 8.66314 57.8132 8.99857 57.6763 9.42469C59.0146 8.84112 60.3391 8.21648 61.6979 7.68425C63.0448 7.15716 64.4156 6.68483 65.7967 6.25357C67.1897 5.81889 68.6084 5.46463 70.0151 5.07444L70.0801 5.29864C69.0841 5.62551 68.0744 5.91301 67.099 6.28437C64.3283 7.33685 61.5114 8.28836 58.9204 9.75498C56.9301 10.8811 55.3061 12.3751 54.5069 14.5896C54.2878 15.1988 54.1578 15.8474 54.0397 16.4874C53.872 17.3945 53.7522 18.3083 53.5844 19.4036C54.0243 19.2102 54.322 19.0784 54.6198 18.9466C56.605 18.0704 58.5662 17.1326 60.5838 16.3351C62.7624 15.4743 64.9872 14.7299 67.2068 13.9769C67.4293 13.8999 67.6757 13.8896 67.9255 13.8896H68.0899C68.1429 13.8913 68.1943 13.8913 68.2456 13.8913C68.3106 13.8913 68.3756 13.8896 68.4407 13.8879C66.9039 14.4424 65.3517 14.9575 63.832 15.5599C60.6609 16.8194 57.4572 18.0123 54.5787 19.9101C53.6323 20.5348 53.1429 21.3169 53.1104 22.4566C53.0283 25.4155 53.682 28.2016 54.9569 30.8559C55.3728 31.7253 55.7288 32.634 56.2353 33.4486C56.8497 34.4378 57.4761 35.4817 58.3249 36.2501C59.03 36.8901 60.0328 37.2529 60.9603 37.5849C63.2193 38.3927 65.5143 38.7007 67.8297 38.7007C69.4504 38.7007 71.0796 38.5501 72.7122 38.3157C74.8206 38.0111 76.9255 37.6825 79.0339 37.3676C79.1058 37.3573 79.1777 37.3505 79.2495 37.3505C79.3711 37.3505 79.496 37.3693 79.626 37.4224C76.5867 38.2763 73.4721 38.6853 70.3557 39.1115C69.4008 39.2415 68.4527 39.2929 67.5063 39.2929C65.2986 39.2929 63.0978 39.0071 60.8526 38.7487C61.3386 39.1577 61.8468 39.5427 62.3055 39.9808C63.346 40.97 64.5148 41.5039 66.0003 41.5399C68.5656 41.6015 71.1275 41.9455 73.6877 41.9455H73.7407C75.6249 41.942 77.5091 41.5758 79.3916 41.3533C80.6135 41.2079 81.8303 41.0299 83.0333 40.869C82.4019 41.3687 78.1303 42.286 75.0071 42.4349C72.2364 42.5667 69.4572 42.529 66.6455 42.6522C67.0134 42.772 67.3814 42.9004 67.7527 43.0116C70.1606 43.7304 72.6044 44.124 75.1029 44.124C75.577 44.124 76.0545 44.1086 76.5336 44.0795C77.2969 44.035 78.0619 44.0316 78.8268 44.0316H79.0476C79.9324 44.0316 80.8189 44.0299 81.6985 43.9683C83.379 43.8519 85.0544 43.6072 86.7178 43.3334C88.0048 43.1212 89.2763 42.8011 90.5427 42.4845C91.3077 42.2946 92.0676 42.0635 92.8017 41.7777C94.6294 41.0641 96.4349 40.294 98.2626 39.577C99.0892 39.2535 99.9466 39.0054 100.789 38.7161C101.076 38.6169 101.386 38.5416 101.637 38.379C102.846 37.5918 104.045 36.7909 105.231 35.9711C106.051 35.403 106.821 34.7612 107.653 34.2136C108.226 33.8371 108.858 33.541 109.486 33.2638C109.516 33.2501 109.551 33.245 109.587 33.245C109.742 33.245 109.944 33.3476 110.117 33.3853C110.056 33.5701 110.047 33.8131 109.922 33.9244C109.696 34.128 109.393 34.2427 109.135 34.4121C108.247 34.9974 107.362 35.5878 106.477 36.1833C105.876 36.5855 105.279 36.9928 104.685 37.407C103.39 38.3123 102.099 39.2244 100.804 40.1314C100.41 40.4069 100.049 40.7869 99.6112 40.9289C98.4013 41.3294 97.7561 42.3528 97.0322 43.2358C95.9882 44.5091 95.1069 45.9192 94.1468 47.2643C93.9278 47.5707 93.6848 47.8667 93.4315 48.1474C91.7304 50.0316 90.3356 52.1554 89.3225 54.4434C88.6226 56.0179 88.3967 57.8268 88.1075 59.5552C87.5924 62.6528 88.2153 65.6596 89.035 68.6391C89.225 69.3339 89.3277 70.0526 89.4714 70.7611C89.6374 71.5894 90.0002 72.3082 90.7823 73.0629C90.5684 69.3236 90.6865 65.7828 91.1451 62.2318C91.1588 62.5022 91.1811 62.7743 91.1845 63.0464C91.2341 66.0772 91.2803 69.1097 91.3299 72.1422C91.3334 72.3476 91.395 72.5598 91.3676 72.76C91.1622 74.2472 91.869 75.3749 92.8531 76.3384C93.885 77.3481 94.9974 78.2757 96.0841 79.2306C96.2039 79.3367 96.3767 79.3829 96.5803 79.4839C96.7652 79.0629 96.5239 78.7874 96.4093 78.4828C96.1406 77.7777 95.8565 77.0743 95.6374 76.3521C95.1514 74.7366 94.7167 73.1057 94.229 71.4919C93.6249 69.4913 93.3305 67.4702 93.8337 65.3704C93.9004 65.8787 94.0031 66.3869 94.0253 66.8986C94.0869 68.3584 94.3847 69.7686 94.8108 71.1616C95.314 72.8079 95.776 74.4696 96.3014 76.1091C96.5307 76.8262 96.8747 77.5073 97.1674 78.2021C97.2615 78.4246 97.4087 78.6351 97.4498 78.8661C97.7013 80.2506 98.6049 81.072 99.796 81.6607C100.445 81.9825 101.086 82.3213 101.738 82.6362C102.004 82.7645 102.289 82.8501 102.745 83.023C102.151 80.6562 100.83 78.7326 100.631 76.4137C100.736 76.5541 100.872 76.6807 100.943 76.8381C101.785 78.6898 102.63 80.5381 103.441 82.4017C103.794 83.2078 104.329 83.728 105.163 84.0618C107.555 85.0184 109.997 85.6721 112.597 85.6721C113.42 85.6721 114.243 85.8227 115.066 85.857C115.114 85.8587 115.16 85.8604 115.207 85.8604C116.064 85.8604 116.75 85.5284 117.479 84.9465C119.502 83.3327 121.015 81.274 122.738 79.4C123.953 78.0789 124.431 76.412 124.91 74.7571C125.629 72.274 126.3 69.7754 126.982 67.2803C127.107 66.8233 127.19 66.3527 127.453 65.9095C127.446 66.0789 127.468 66.2552 127.431 66.4177C126.673 69.6043 125.913 72.7908 125.139 75.9739C124.626 78.084 123.37 79.7577 121.97 81.3493C120.904 82.5609 119.868 83.7948 118.735 85.1142C119.309 85.0201 119.875 85.0338 120.348 84.8301C122.302 83.9847 124.362 83.343 126.051 81.9636C127.898 80.4576 129.597 78.837 131.021 76.8946C131.911 75.6796 132.724 74.42 133.496 73.1399V75.084C132.603 76.3692 131.646 77.6117 130.66 78.825C129.907 79.7509 129.033 80.5757 128.211 81.4468C128.641 81.6265 129.123 81.8284 129.693 82.068C129.844 81.8644 130.046 81.6351 130.196 81.3766C130.472 80.8992 130.717 80.4029 130.975 79.9151C131.139 79.6088 131.227 79.2152 131.665 79.2152C131.69 79.2152 131.719 79.2152 131.749 79.2186C132.185 79.2631 132.255 79.6157 132.373 79.9442C132.49 80.2677 132.64 80.5809 132.787 80.8923C132.948 81.2346 133.174 81.4383 133.496 81.4742V82.7645C132.984 83.1102 132.707 83.6955 132.644 84.5632C132.534 86.0726 132.529 87.5888 132.483 89.1017L132.524 89.5056C132.65 89.6767 132.822 89.8564 133.012 89.9197L133.373 89.5227C133.397 88.9767 133.364 88.4257 133.316 87.8798C133.282 87.4862 133.188 87.0943 133.496 86.6562V91.6379C133.436 91.5609 133.393 91.5061 133.34 91.4633C132.82 91.0458 131.978 90.8438 131.132 90.8438C130.308 90.8438 129.483 91.0355 128.949 91.4052C127.907 92.1273 127.824 93.1678 127.9 94.2477C127.965 95.1889 128.331 96.0549 128.932 96.7959C129.467 97.4582 130.273 97.8141 131.093 97.8141C131.533 97.8141 131.978 97.7115 132.387 97.4975C132.46 97.4599 132.498 97.3538 132.627 97.1758C132.231 97.1981 131.935 97.2118 131.639 97.2306C131.589 97.234 131.542 97.2357 131.492 97.2357C130.97 97.2357 130.506 97.0457 130.121 96.7001C129.981 96.5734 129.97 96.3013 129.9 96.096C130.051 96.06 130.253 95.959 130.378 95.959C130.409 95.959 130.434 95.9642 130.453 95.9796C130.915 96.3338 131.394 96.4348 131.882 96.4348C132.414 96.4348 132.957 96.3133 133.496 96.2637V99.2003C133.323 98.9693 133.143 98.7297 132.947 98.4867C132.938 98.4901 132.739 98.55 132.466 98.6322C132.834 99.3064 133.166 99.9191 133.496 100.523V103.097C133.255 102.264 133.116 101.543 132.803 100.908C132.457 100.215 131.913 99.6179 131.381 98.8735C130.318 100.213 129.151 101.34 129.982 103.248C128.976 103.166 128.92 102.344 128.514 101.803C128.41 101.964 128.329 102.069 128.269 102.183C127.617 103.444 127.754 104.185 128.855 105.115C129.274 105.471 129.75 105.76 130.188 106.094C130.676 106.463 131.148 106.85 131.696 107.285L132.098 106.958C132.498 106.453 132.962 106.047 133.496 105.734V107.144C132.815 107.81 132.289 108.654 131.696 109.525C132.322 109.472 132.917 109.429 133.496 109.385V111.289C133.246 111.219 132.972 111.2 132.753 111.077C132.384 110.868 132.024 110.781 131.672 110.781C131.139 110.781 130.621 110.981 130.104 111.255C129.411 111.625 128.713 111.981 128.014 112.342L128.042 112.616C128.541 112.725 129.04 112.833 129.538 112.941C130.881 113.233 132.229 113.499 133.496 114.038V115.058C131.969 114.445 130.38 114.053 128.774 113.719C128.004 113.559 127.227 113.442 126.45 113.328C126.413 113.322 126.373 113.319 126.332 113.319C126.199 113.319 126.053 113.348 125.959 113.417C125.127 114.014 124.313 114.635 123.291 115.4C123.743 115.58 123.917 115.694 124.106 115.717C127.097 116.074 129.936 117.048 132.823 117.837C133.047 117.899 133.272 117.958 133.496 118.017V118.97C129.739 117.912 125.997 116.961 122.054 116.304C121.256 116.752 120.585 117.633 119.82 118.66C120.348 118.845 120.717 119.062 121.102 119.095C122.877 119.242 124.503 119.945 126.195 120.397C128.124 120.909 130.047 121.436 131.973 121.965C132.483 122.103 132.998 122.239 133.496 122.415V123.459C130.999 122.43 128.53 122.184 126.218 121.403C123.863 120.609 121.47 120.009 118.984 119.819C117.955 120.796 116.673 122.584 116.352 123.541C116.569 123.599 116.779 123.685 116.995 123.709C117.95 123.816 118.91 123.873 119.858 124.008C121.83 124.29 123.798 124.598 125.761 124.922C126.609 125.061 127.445 125.285 128.292 125.432C128.831 125.524 129.383 125.577 129.931 125.594C129.976 125.596 130.02 125.596 130.066 125.596C130.978 125.596 131.788 125.31 132.449 124.619C132.731 124.325 133.059 124.075 133.496 123.707V124.968C131.783 126.226 131.615 128.18 131.555 130.186C131.536 130.841 131.55 131.497 131.5 132.147C131.326 134.446 131.131 136.742 130.934 139.148C131.239 139.095 131.476 139.106 131.661 139.011C132.18 138.741 132.678 138.428 133.184 138.134C133.316 138.058 133.417 137.971 133.496 137.87V139.304C132.036 140.149 130.487 140.805 128.832 141.252C127.636 141.573 126.431 141.887 125.275 142.319C123.084 143.136 120.799 143.48 118.51 143.752C114.983 144.168 111.745 145.34 108.729 147.175C108.396 147.378 108.069 147.525 107.713 147.525ZM110.447 143.446C110.047 144.065 109.646 144.685 109.128 145.485C109.547 145.373 109.768 145.343 109.961 145.256C111.057 144.763 112.152 144.272 113.228 143.745C113.441 143.641 113.685 143.394 113.723 143.18C113.814 142.653 113.791 142.107 113.819 141.457C112.958 141.727 112.616 142.403 112.092 142.843C111.563 143.286 111.081 143.783 110.579 144.255L110.341 144.123C110.377 143.897 110.412 143.671 110.447 143.446ZM111.459 141.157C111.253 141.157 111.146 141.315 110.995 141.661C110.755 142.207 110.641 142.806 110.475 143.382C111.074 142.759 111.671 142.136 112.296 141.488C111.885 141.274 111.635 141.157 111.459 141.157ZM116.186 139.018C115.388 139.513 114.736 139.96 114.806 141.01C114.854 141.709 114.726 142.417 114.678 143.112C114.933 143.134 115.14 143.148 115.309 143.148C115.939 143.148 116.023 142.949 116.095 142.215C116.184 141.298 116.254 140.377 116.317 139.456C116.326 139.338 116.247 139.215 116.186 139.018ZM119.694 136.13C118.934 136.725 118.237 137.264 117.55 137.815L117.407 138.082C117.262 139.58 116.923 141.067 117.103 142.586C117.327 142.725 117.548 142.775 117.765 142.775C118.061 142.775 118.35 142.682 118.626 142.607C118.833 142.549 119.088 142.26 119.121 142.044C119.4 140.208 119.632 138.363 119.874 136.52C119.882 136.463 119.82 136.398 119.694 136.13ZM123.637 132.96C122.394 133.841 121.13 134.333 120.897 135.813C120.615 137.612 120.38 139.419 120.142 141.224C120.103 141.524 120.147 141.833 120.154 142.167C120.39 142.282 120.615 142.325 120.832 142.325C121.318 142.325 121.77 142.114 122.232 142.017C122.408 140.995 122.579 140.021 122.738 139.046C122.899 138.063 123.034 137.076 123.202 136.095C123.365 135.145 123.731 134.22 123.637 132.96ZM126.847 130.751C125.838 131.1 125.165 131.495 124.884 132.566C124.167 135.312 123.686 138.086 123.471 140.908C123.452 141.137 123.471 141.37 123.473 141.801C124.126 141.585 124.605 141.406 125.097 141.269C125.566 141.14 125.752 140.843 125.8 140.377C126.074 137.808 126.363 135.243 126.645 132.678C126.712 132.075 126.772 131.471 126.847 130.751ZM130.934 127.239C129.423 128.357 128.006 129.279 127.744 131.132C127.546 132.527 127.417 133.934 127.284 135.337C127.13 136.946 127 138.56 126.868 140.172C126.859 140.268 126.905 140.367 126.952 140.581C127.847 140.524 128.68 140.273 129.45 139.829C129.597 139.742 129.681 139.503 129.738 139.314C129.868 138.888 130.012 138.455 130.059 138.015C130.234 136.408 130.383 134.8 130.516 133.189C130.66 131.476 130.777 129.76 130.903 128.043C130.919 127.852 130.919 127.658 130.934 127.239ZM113.644 138.566C113.285 138.566 112.925 138.592 112.571 138.592C112.417 138.592 112.202 138.786 112.121 138.945C111.943 139.296 111.834 139.682 111.669 140.129C112.039 140.23 112.371 140.281 112.672 140.281C113.595 140.281 114.242 139.795 114.88 138.743C114.469 138.601 114.057 138.566 113.644 138.566ZM113.795 134.476C113.288 134.476 113.131 134.697 112.978 135.335C112.867 135.804 112.753 136.272 112.628 136.739C112.508 137.184 112.612 137.529 113.107 137.564C113.666 137.603 114.228 137.659 114.779 137.659C115.816 137.659 116.812 137.463 117.674 136.593C118.071 136.195 118.558 135.881 119.21 135.366C118.504 135.199 118.06 135.063 117.603 134.99C116.446 134.808 115.287 134.636 114.125 134.499C114 134.483 113.891 134.476 113.795 134.476ZM115.65 131.769C115.006 131.769 114.358 131.843 113.689 132.019C113.639 132.125 113.536 132.267 113.5 132.423C113.304 133.302 113.381 133.474 114.26 133.619C115.446 133.814 116.644 133.936 117.839 134.086C118.145 134.126 118.465 134.108 118.761 134.187C119.002 134.25 119.23 134.28 119.444 134.28C120.519 134.28 121.287 133.557 122.097 132.924L122.062 132.623C121.744 132.553 121.427 132.46 121.106 132.418C119.814 132.241 118.513 132.115 117.228 131.904C116.701 131.819 116.177 131.769 115.65 131.769ZM115.845 128.605C115.677 128.605 115.511 128.608 115.344 128.612C113.997 128.641 113.625 129.118 113.851 130.645C116.896 130.995 119.899 131.345 122.903 131.677C122.993 131.687 123.093 131.695 123.192 131.695C123.378 131.695 123.565 131.668 123.695 131.582C124.374 131.139 125.008 130.629 125.851 129.999C125.167 129.825 124.718 129.666 124.258 129.602C121.804 129.272 119.348 128.957 116.889 128.659C116.545 128.617 116.194 128.605 115.845 128.605ZM115.629 124.607C115.246 125.475 114.847 126.373 114.378 127.438C114.952 127.521 115.371 127.593 115.794 127.64C116.612 127.732 117.433 127.802 118.251 127.896C119.584 128.049 120.919 128.197 122.249 128.374C123.615 128.557 124.977 128.766 126.337 128.978C126.503 129.003 126.666 129.029 126.818 129.029C127.116 129.029 127.373 128.928 127.546 128.523C127.617 128.351 127.912 128.264 128.114 128.16C128.755 127.829 129.31 127.405 129.828 126.693C128.694 126.445 127.676 126.185 126.644 126.005C123.899 125.529 121.152 125.055 118.395 124.646C118.054 124.595 117.707 124.581 117.346 124.581C117.101 124.581 116.848 124.588 116.586 124.595C116.322 124.602 116.047 124.607 115.758 124.607H115.629ZM39.0585 101.29C38.1395 101.29 37.5371 101.937 36.7756 102.368C37.508 103.694 38.2097 104.969 38.9935 106.391C39.4265 104.634 39.4076 103.001 39.3238 101.307C39.2313 101.295 39.1441 101.29 39.0585 101.29ZM40.7254 101.68L40.4687 101.781C40.4464 102.816 40.4242 103.85 40.3968 105.072C40.9787 104.331 41.4339 103.753 41.9559 103.089C41.5451 102.618 41.1344 102.151 40.7254 101.68ZM127.114 101.826C126.303 101.985 125.673 102.106 124.953 102.247C124.963 102.827 124.973 103.397 124.984 104.1C125.488 104.073 125.915 104.049 126.36 104.025C126.604 103.313 126.832 102.649 127.114 101.826ZM41.0522 96.6829C40.7202 97.6345 40.4293 98.6732 40.6997 99.4998C41.0437 100.547 41.4972 101.687 42.5428 102.488C42.8081 102.245 43.0665 102.029 43.2993 101.79C44.2422 100.816 44.2097 100.802 43.3146 99.7343C42.743 99.0515 42.2759 98.2813 41.7642 97.5489C41.5588 97.2528 41.3603 96.9516 41.0522 96.6829ZM39.7944 96.7925C38.5965 96.8284 37.645 97.3196 37.0049 97.9819C36.3375 98.6767 35.629 99.161 34.7168 99.4998C34.888 100.35 35.3996 100.939 36.0123 101.418C36.0756 101.466 36.1732 101.485 36.2845 101.485C36.471 101.485 36.6917 101.43 36.8406 101.355C37.6912 100.931 38.5109 100.444 39.4966 99.8951C39.5873 98.9522 39.6883 97.9117 39.7944 96.7925ZM123.753 92.1205C123.527 92.1205 123.267 92.2249 123.075 92.3498C121.455 93.4057 119.897 94.5301 118.905 96.2671C118.706 96.6128 118.357 96.8746 118.065 97.1621C117.835 97.3897 117.585 97.5985 117.142 97.999C117.818 98.1461 118.236 98.2625 118.662 98.3258C119.81 98.4953 120.813 99.0121 121.826 99.5426C122.485 99.8866 123.214 100.097 123.914 100.366C124.106 100.438 124.304 100.492 124.491 100.575C124.917 100.758 125.328 100.848 125.716 100.848C126.565 100.848 127.311 100.414 127.888 99.5597C128.042 99.3321 128.174 99.0823 128.358 98.8854C128.512 98.7246 128.629 98.651 128.797 98.651C128.939 98.651 129.115 98.7023 129.377 98.7965C129.178 99.2739 129.017 99.6658 128.856 100.058L129.06 100.162C129.589 99.8062 129.822 99.2431 130.08 98.7075C129.45 98.2985 128.908 97.9493 128.273 97.5403C126.813 97.9288 126.166 99.6333 124.588 100.261C124.718 99.2414 125.381 98.7554 125.879 98.1838C126.373 97.6173 126.936 97.1091 127.492 96.5529C127.378 96.1935 127.224 95.841 127.16 95.4747C127.015 94.6139 126.505 94.2306 125.663 94.2289C124.392 94.2272 123.12 94.2237 121.847 94.2152L121.506 94.145C121.712 93.6333 122.158 93.6145 122.528 93.5837C123.555 93.493 124.588 93.4571 125.619 93.4126C125.704 93.4091 125.79 93.4074 125.875 93.4074C126.158 93.4074 126.437 93.4228 126.705 93.428C126.912 92.8701 126.616 92.6801 126.264 92.598C125.463 92.4131 124.655 92.2403 123.842 92.1256C123.813 92.1222 123.782 92.1205 123.753 92.1205ZM41.7214 92.1017C41.516 93.0378 41.3192 93.8301 41.1875 94.6345C41.1566 94.8295 41.3312 95.0674 41.4356 95.2745C41.7505 95.8769 42.1064 96.4588 42.3888 97.0766C42.7653 97.8963 43.8999 99.3133 44.7847 99.9414C44.9969 99.7634 45.2177 99.5597 45.4573 99.3817C46.0545 98.9334 46.1367 98.3258 45.832 97.7286C45.3837 96.8438 44.8908 95.9727 44.3175 95.165C43.7049 94.3025 42.9827 93.5187 42.3015 92.7058C42.1561 92.5312 41.9866 92.3772 41.7214 92.1017ZM40.3164 92.7417C40.0853 92.7811 39.8919 92.7588 39.7687 92.841C37.6415 94.2751 35.5212 95.7229 33.3152 97.2254C33.6267 97.7816 33.9022 98.2728 34.2394 98.8735C34.7408 98.5586 35.1396 98.3087 35.5383 98.0606C36.5583 97.4257 37.5491 96.7343 38.6067 96.1695C40.0426 95.4046 40.52 94.5814 40.3164 92.7417ZM42.6558 88.3521C42.05 89.2352 41.759 90.1233 42.3666 91.1005C43.1418 92.3515 43.7938 93.6693 44.8446 94.7577C45.6695 95.6116 46.277 96.671 47.0488 97.732C47.5246 97.347 47.9935 96.9687 48.4418 96.6059C47.8839 95.0657 44.2114 89.8341 42.6558 88.3521ZM40.965 88.7919C40.3728 89.1 39.7397 89.3481 39.1972 89.728C37.532 90.8917 35.9148 92.1239 34.2513 93.2893C33.637 93.7189 32.9439 94.0389 32.1926 94.4599C32.3962 95.0024 32.5862 95.5107 32.7728 96.0104C32.86 96.0292 32.9404 96.0378 33.0174 96.0378C33.4487 96.0378 33.7294 95.7657 34.0443 95.5637C34.7048 95.1393 35.3826 94.7406 36.0466 94.3196C36.5685 93.9859 37.0853 93.6436 37.5987 93.2962C38.2542 92.8495 38.8583 92.307 39.5616 91.9648C40.3369 91.59 40.6518 90.9687 40.8606 90.2312C40.9804 89.8102 41.0522 89.3755 41.1463 88.9476L40.965 88.7919ZM43.6398 83.0076C43.5029 83.4782 43.4173 83.6921 43.3814 83.9146C43.3249 84.2534 43.378 84.6299 43.253 84.9345C42.6541 86.3892 43.2941 87.5153 44.119 88.6259C45.7191 90.7788 47.2987 92.9488 48.8936 95.1068C49.0305 95.295 49.2137 95.4491 49.4653 95.7126C49.9513 95.2197 50.4527 94.8022 50.824 94.2888C50.9866 94.068 50.9935 93.6008 50.8737 93.3338C50.5639 92.6476 50.1857 91.9836 49.763 91.3607C48.6249 89.6818 47.4715 88.0133 46.2804 86.3721C45.4932 85.2905 44.6307 84.2637 43.6398 83.0076ZM41.8121 84.2517C41.6016 84.3595 41.4766 84.4057 41.3671 84.4793C38.7162 86.2591 35.9182 87.8301 33.4966 89.9437C33.1612 90.238 32.7967 90.5067 32.4133 90.736C31.7168 91.1519 31.5149 91.7337 31.7374 92.4901C31.8041 92.7177 31.8743 92.9454 31.9804 93.2928C32.5092 93.0549 33.0397 92.9026 33.4761 92.6082C35.8446 91.0184 38.1943 89.3994 40.5371 87.7737C41.67 86.9882 42.0773 85.8706 41.8121 84.2517ZM121.017 90.0172C120.769 90.0172 120.433 90.1097 119.921 90.2483C119.66 90.3184 119.403 90.404 119.122 90.4896C119.4 91.4223 119.665 92.3122 119.94 93.2329C120.685 92.6767 121.421 92.129 122.1 91.6208C122.086 91.4291 122.102 91.3521 122.074 91.2956C121.636 90.3458 121.486 90.0172 121.017 90.0172ZM43.9992 79.2734C43.8024 80.396 43.5115 81.4468 44.398 82.477C45.3375 83.5706 46.1469 84.7788 46.9957 85.9494C47.9455 87.2585 48.8783 88.5797 49.8127 89.9009C50.5246 90.9071 51.2279 91.9185 51.9792 92.9916C52.8417 92.4183 52.953 91.3897 53.4493 90.6539C51.856 87.2038 46.0408 80.1924 43.9992 79.2734ZM127.71 82.0509C125.87 83.0931 124.176 84.0498 122.393 85.0595C122.536 85.5113 122.634 86.0931 122.186 86.6271C122.079 86.7537 122.112 87.0309 122.143 87.2295C122.269 88.0441 122.388 88.8638 122.572 89.6681C122.764 90.5033 123.277 91.0543 124.162 91.2203C124.905 91.3607 125.641 91.5455 126.385 91.6875C126.467 91.7029 126.529 91.7132 126.584 91.7132C126.75 91.7132 126.837 91.6139 127.186 91.2648C126.9 91.1125 126.642 90.9824 126.387 90.8404C125.542 90.3681 124.931 89.6835 124.658 88.7508C124.599 88.5455 124.686 88.1433 124.833 88.0612C124.913 88.0167 124.987 87.9961 125.055 87.9961C125.271 87.9961 125.427 88.2015 125.512 88.4616C125.814 89.3875 126.354 90.1028 127.28 90.4964C127.511 90.5922 127.741 90.6385 127.958 90.6385C128.723 90.6385 129.346 90.0737 129.366 89.1872C129.399 87.7976 129.036 86.5295 128.052 85.4924L127.688 85.1279L127.628 84.7583L128.026 84.5375C128.358 84.6813 128.761 84.825 128.957 85.0971C129.866 86.3567 130.468 87.7257 130.107 89.343L130.101 89.6493C130.102 89.6818 130.126 89.7126 130.196 89.882C130.544 89.8803 130.876 89.8803 131.228 89.8786C131.562 88.9579 131.518 88.0646 131.507 87.1798C131.504 86.9916 131.396 86.7794 131.281 86.6185C130.544 85.5831 129.813 84.5426 129.04 83.5364C128.612 82.9802 128.103 82.4856 127.71 82.0509ZM42.5856 79.3709C41.2816 80.1821 40.1452 80.817 39.0859 81.5615C37.3386 82.7868 35.6393 84.0806 33.9211 85.347C33.2605 85.8347 32.5948 86.3207 31.9462 86.8239C31.7939 86.9419 31.6159 87.1131 31.5816 87.2842C31.4105 88.1502 31.2684 89.0264 31.5132 90.0515C32.0317 89.7605 32.504 89.5569 32.9079 89.2608C34.4892 88.1074 36.05 86.9231 37.6193 85.7509L37.965 85.5284C39.4213 85.068 40.443 83.9471 41.6512 83.1102C42.1081 82.7936 42.3358 82.3795 42.4213 81.8319C42.5343 81.0908 42.5394 80.355 42.5856 79.3709ZM44.5057 74.1188C44.3825 74.3943 44.2644 74.5381 44.261 74.6853C44.2353 75.5786 44.2063 76.4736 44.2508 77.3635C44.2645 77.6373 44.463 77.9385 44.6546 78.161C45.0585 78.6299 45.5103 79.0578 45.9484 79.4959C46.5046 80.0538 47.1122 80.5689 47.6221 81.1679C49.4037 83.2608 51.1663 85.3709 52.8999 87.505C53.2388 87.9208 53.4167 88.4702 53.6683 88.9562L53.9524 88.8826C54.0482 88.6961 54.1988 88.5198 54.2314 88.323C54.3939 87.3732 54.5 86.4149 54.6746 85.4685C54.7841 84.8695 54.6249 84.3801 54.2416 83.9437C52.1572 81.5752 50.3141 78.9859 47.7898 77.0178C47.0078 76.4086 46.3283 75.6624 45.589 74.9933C45.2673 74.7024 44.9148 74.4474 44.5057 74.1188ZM42.7465 74.2027C42.192 74.6562 41.7454 75.0156 41.3055 75.3852C39.5189 76.8895 37.7442 78.4092 35.9439 79.898C34.9958 80.6818 34.0032 81.4109 33.0329 82.1707L32.8446 82.4103C32.5417 83.3532 32.2491 84.2979 31.8948 85.4325C32.2782 85.2836 32.4818 85.2494 32.6307 85.1399C34.5611 83.7041 36.4744 82.2426 38.4167 80.8222C39.1663 80.2728 39.9484 79.7543 40.7682 79.323C42.8458 78.2295 43.33 77.153 42.7465 74.2027ZM131.673 81.0823C131.134 81.8609 130.691 82.4993 130.212 83.1873C130.412 83.8359 130.688 84.469 131.358 85.0543C131.682 83.9471 131.476 82.7731 132.443 81.9962C132.199 81.7069 132.009 81.4793 131.673 81.0823ZM44.0283 69.4862C44.1036 70.5438 44.0009 71.4474 44.273 72.2175C44.4938 72.8456 45.1253 73.3556 45.6438 73.8467C47.1344 75.2688 48.6387 76.679 50.1806 78.0446C51.423 79.1433 52.5457 80.3396 53.5417 81.6642C53.8257 82.0406 54.1937 82.3572 54.654 82.8364C54.9569 81.5221 54.8081 80.4303 54.1783 79.4736C53.5776 78.5615 52.8024 77.7657 52.1435 76.8895C50.771 75.0635 48.8902 73.7509 47.3534 72.0874C46.5696 71.2386 45.6027 70.5575 44.7094 69.8096C44.5862 69.707 44.4099 69.6642 44.0283 69.4862ZM42.7243 70.5181C41.7967 70.8861 40.9633 71.278 40.2599 71.8701C39.4727 72.5341 38.7591 73.2734 37.7802 73.691C37.4927 73.8125 37.2325 74.1205 37.0699 74.408C36.1047 76.1125 35.172 77.8376 34.2342 79.5575C34.1897 79.6396 34.1898 79.7457 34.1213 80.0555C35.4579 79.0389 36.7756 78.315 37.8263 77.2146C38.2011 76.821 38.6546 76.501 39.0671 76.1416C40.1555 75.197 41.273 74.2814 42.3169 73.2905C42.9861 72.6522 43.0597 71.8804 42.7243 70.5181ZM43.0169 65.0008L42.803 65.1804C43.1914 66.1268 43.5748 67.0749 43.9718 68.0196L44.2319 68.3379C45.2348 69.2192 46.2462 70.092 47.2439 70.9768C48.2245 71.8461 49.2119 72.707 50.1617 73.6088C51.1013 74.5004 51.9997 75.44 53.0556 76.2991C52.6638 75.3869 52.3711 74.4115 51.8543 73.578C50.9473 72.1131 49.8845 70.7612 48.5924 69.5872C47.7282 68.8034 46.9581 67.9135 46.1794 67.0407C45.3015 66.0584 44.0967 65.6391 43.0169 65.0008ZM41.8617 66.4674C40.9239 68.0623 40.0306 69.5803 39.1355 71.0983L39.2827 71.1941C40.2017 70.6653 41.1121 70.1108 42.0482 69.6128C42.5976 69.3202 42.7704 68.9146 42.6541 68.3379C42.5274 67.7047 42.4127 67.0646 41.8617 66.4674Z" fill="#9ED4F1"/>
<path d="M129.362 93.1547C129.345 92.9408 129.242 92.6841 129.324 92.5181C129.744 91.6556 130.813 91.0806 131.885 91.0806C132.027 91.0806 132.167 91.0891 132.307 91.1114C132.718 91.1713 133.124 91.2791 133.642 91.3955V93.0384C133.437 92.6636 133.119 92.3812 132.701 92.2169C132.393 92.0954 132.097 92.0338 131.816 92.0338C131.25 92.0338 130.738 92.2819 130.288 92.7765L130.009 93.0726C129.805 93.1376 129.578 93.1308 129.362 93.1547Z" fill="#9ED4F1"/>
<path d="M133.085 43.833C132.51 42.5152 132.109 41.1222 131.642 39.7925C131.991 39.4416 132.244 39.2619 132.436 39.2619C132.655 39.2619 132.792 39.4981 132.903 39.9807C132.96 40.2203 133.02 40.4565 133.085 40.6909V43.833ZM68.0295 13.9665C68.0483 13.9597 68.0672 13.9528 68.086 13.946L68.098 13.9631C68.0757 13.9648 68.0517 13.9665 68.0295 13.9665ZM0 7.56264C0.265259 7.15705 0.355971 6.9534 0.503147 6.80623C1.08501 6.21752 1.73015 5.68701 2.26923 5.06408C3.51167 3.62654 4.51626 2.05552 5.35653 0.39209H6.46205C6.23102 0.835329 6.02049 1.3128 5.76379 1.83476C6.72899 2.00076 7.65141 2.14965 8.54473 2.14965C9.49795 2.14965 10.4187 1.98023 11.324 1.47709C11.9897 1.10744 12.664 0.749762 13.3383 0.39209H14.656C14.0947 0.683019 13.5351 0.979087 12.9823 1.28713C12.2019 1.7201 11.4284 2.18559 10.7319 2.74006C10.2065 3.15763 10.025 3.80965 10.1089 4.62425C10.7917 4.68929 11.4541 4.72865 12.1061 4.72865C12.8865 4.72865 13.648 4.67046 14.4095 4.52329C14.6234 4.4805 14.8939 4.36242 15.0017 4.19129C15.794 2.93858 16.5693 1.67389 17.3565 0.39209H17.9743C17.3445 1.53356 16.7387 2.69214 16.1243 3.84388C16.0644 3.95683 16.0627 4.1023 16.0028 4.38125C16.4888 4.38296 16.9663 4.40007 17.4369 4.40007C18.0564 4.40007 18.6656 4.36927 19.2697 4.22723C19.4974 4.17418 19.737 3.91918 19.855 3.6967C20.4472 2.59631 21.0359 1.4942 21.6195 0.39209H22.571C22.0678 1.34018 21.5578 2.28655 21.0632 3.24149C20.9589 3.44343 20.9212 3.68131 20.7878 4.10915C22.0114 4.12626 23.0587 4.14165 24.1197 4.15534C24.3576 2.70925 24.9189 1.51645 25.6377 0.39209H26.4181C26.3753 0.48108 26.3325 0.571783 26.2897 0.662485C25.8397 1.62084 25.4221 2.59288 24.8847 3.79596C25.4015 3.72237 25.6394 3.71724 25.8602 3.6505C26.5841 3.43144 27.3045 3.19186 28.025 2.95911C29.3085 2.54325 30.3268 1.9922 30.6708 0.436587C30.6742 0.421184 30.6776 0.405781 30.681 0.39209H31.4443C31.304 0.713823 31.1619 1.03898 31.0147 1.36585C31.4032 1.29739 32.1716 0.888381 32.9451 0.39209H34.6103C33.6896 1.05952 32.7535 1.7047 31.8242 2.35843C31.5743 2.53641 31.2749 2.64594 30.9908 2.76744C30.1967 3.10287 29.4147 3.47936 28.5983 3.74462C27.0598 4.24262 25.5247 4.86727 23.9417 5.08462C21.8676 5.36699 19.7455 5.29511 17.6457 5.39437C15.2396 5.50732 12.8317 5.61855 10.4272 5.76914C7.25781 5.96766 4.0918 6.21067 1.10208 7.43429C0.850509 7.53868 0.540786 7.50446 0 7.56264ZM9.243 3.79425C8.3993 4.17417 7.79689 4.44628 7.06443 4.77657C7.31087 4.9015 7.53675 4.9477 7.74896 4.9477C8.14257 4.9477 8.48826 4.79026 8.81855 4.69271C8.98798 4.64308 9.0479 4.22893 9.243 3.79425ZM6.76152 2.61343C5.15456 2.61343 4.74384 3.1371 3.85565 4.87241C5.3411 4.16049 6.74101 3.48963 8.35823 2.71439C7.71648 2.65107 7.1962 2.61343 6.76152 2.61343ZM125.923 3.72066C125.897 3.72066 125.868 3.71895 125.839 3.71553C125.387 3.66077 125.339 3.2877 125.418 2.92147C125.592 2.112 125.746 1.2974 125.983 0.505042C125.993 0.467392 126.005 0.42974 126.015 0.39209H126.946C126.922 0.491348 126.898 0.592322 126.876 0.693291C126.713 1.43259 126.571 2.17531 126.421 2.91633L126.409 3.01731C126.357 3.34246 126.321 3.72066 125.923 3.72066Z" fill="#9ED4F1"/>
<path d="M92.3389 123.975C92.202 123.686 92.0685 123.378 91.911 123.085C91.7142 122.723 91.5311 122.346 91.2796 122.024C90.3161 120.785 88.9675 120.084 87.5779 119.452C87.4239 119.382 87.2767 119.35 87.133 119.35C86.8489 119.35 86.5853 119.476 86.3321 119.682C85.3942 120.44 84.4308 121.165 83.5152 121.951C83.2585 122.17 83.0189 122.305 82.7605 122.305C82.5551 122.305 82.3378 122.219 82.0896 122.021C82.1837 121.379 82.3155 120.705 82.3703 120.026C82.4268 119.307 82.4165 118.583 81.874 117.996L81.5437 118.068C80.878 118.59 80.1712 118.812 79.4336 118.812C78.9715 118.812 78.4992 118.725 78.0149 118.569C77.6469 118.451 77.279 118.398 76.9076 118.398C76.5637 118.398 76.2163 118.444 75.8689 118.526C75.6173 118.585 75.3589 118.672 75.1056 118.672C75.0902 118.672 75.0731 118.672 75.0577 118.67C74.7377 118.655 74.3201 118.639 74.1233 118.444C73.8067 118.128 74.0993 117.77 74.2859 117.426C74.5238 116.984 74.7873 116.502 74.8198 116.021C74.8506 115.571 74.6316 115.085 74.4536 114.643C74.0959 113.762 73.8785 112.872 74.0976 111.921C74.3475 110.841 74.7069 109.805 75.3383 108.878C75.4855 108.662 75.5711 108.404 75.6823 108.166C74.6863 107.122 73.7348 106.148 72.3109 106.148C72.2476 106.148 72.1843 106.15 72.1193 106.153C71.6829 105.234 71.6538 105.133 72.2322 104.507C72.8381 103.85 73.5158 103.259 74.1746 102.65C74.4467 102.397 74.647 102.135 74.4758 101.752C73.9966 100.682 74.1969 99.6126 74.3423 98.5053C74.6401 96.26 74.1455 94.2577 72.1877 92.8373C71.7685 92.5327 71.5837 92.1134 71.7634 91.5384C71.7942 91.5401 71.8267 91.5401 71.8575 91.5401H71.955C71.9858 91.5384 72.0149 91.5384 72.044 91.5384C72.1347 91.5384 72.2168 91.5435 72.2921 91.5726C73.1324 91.9046 73.9709 92.0552 74.8112 92.0552C75.6891 92.0552 76.5688 91.8892 77.4484 91.5897C77.6435 91.523 77.8489 91.4854 78.0525 91.4494C78.9921 91.2783 79.9265 91.0438 80.8763 91.0438C81.328 91.0438 81.7833 91.0969 82.2454 91.2355C82.3001 91.2509 82.3634 91.2577 82.4319 91.2577C82.6663 91.2577 82.9504 91.1688 83.0753 91.0301C83.8181 90.2053 84.5094 89.3325 84.4307 88.114C84.417 87.9086 84.4307 87.6981 84.4598 87.4945C84.4992 87.1916 84.5009 86.7928 84.8997 86.786H84.9065C85.129 86.786 85.4661 86.9742 85.5568 87.1676C86.0617 88.2441 87.0611 88.6411 88.0366 89.0741C88.4986 89.2811 88.947 89.4095 89.3731 89.4095C89.9515 89.4095 90.4923 89.1733 90.9852 88.5726C91.8666 87.4962 93.1757 86.7466 93.4529 85.2098C93.4872 85.0267 93.8158 84.7803 94.0246 84.7649C94.04 84.7649 94.0554 84.7632 94.0708 84.7632C94.4233 84.7632 94.5157 85.0798 94.4849 85.4152C94.3942 86.3907 94.4199 87.3559 94.9333 88.2287C95.5425 89.2692 96.2835 90.2429 96.7935 91.3279C97.3377 92.4831 98.1164 92.9366 99.2459 92.9366C99.3999 92.9366 99.5591 92.928 99.7268 92.9126C100.612 92.8271 101.428 92.7244 102.138 92.1545C102.378 91.9611 102.645 91.7746 102.929 91.6719C102.971 91.6582 103.023 91.6497 103.076 91.6497C103.228 91.6497 103.404 91.7044 103.485 91.7917C103.593 91.9098 103.591 92.1767 103.552 92.3616L103.256 92.7706C102.212 93.592 101.631 94.624 101.729 95.9862L101.661 96.3952C101.443 97.4836 101.816 98.2811 102.663 99.0273C103.586 99.8367 104.46 100.757 105.14 101.776C105.821 102.796 106.677 103.532 107.698 104.122C108.323 104.483 108.98 104.791 109.637 105.096C109.969 105.251 110.27 105.4 110.214 105.835C110.161 106.244 109.884 106.384 109.5 106.446C108.853 106.547 108.215 106.708 107.572 106.826C105.633 107.184 104.365 108.474 103.232 109.949C103.138 110.074 103.112 110.266 103.088 110.433C102.876 112.018 103.225 113.442 104.281 114.678C104.507 114.945 104.637 115.29 104.801 115.581C104.536 115.836 104.303 115.937 104.086 115.937C103.825 115.937 103.588 115.793 103.339 115.603C102.663 115.081 101.933 114.755 101.139 114.755C100.817 114.755 100.487 114.808 100.144 114.924C99.5625 115.119 99.0114 115.407 98.4313 115.603C97.988 115.754 97.7656 116.024 97.6612 116.473C97.3668 117.737 96.5933 118.638 95.409 119.125C94.668 119.432 94.2265 119.947 93.9989 120.669C93.7507 121.456 93.5129 122.249 93.3366 123.053C93.2202 123.582 93.0491 123.962 92.3389 123.975ZM87.6138 109.775C87.5112 110.074 87.4461 110.298 87.3572 110.514C87.1381 111.049 87.008 111.659 86.6657 112.099C85.2128 113.964 86.2328 117.674 88.4575 118.543C89.8779 119.098 91.1238 119.986 92.1814 121.109C92.2465 121.177 92.3543 121.205 92.5271 121.297C92.6794 120.974 92.8471 120.684 92.9584 120.373C93.3006 119.42 93.862 118.646 94.8152 118.27C96.1826 117.731 96.761 116.664 96.8808 115.307C97.1016 112.831 96.4718 110.661 94.4575 109.039L94.0416 108.794L93.8312 108.974C94.0571 109.304 94.3343 109.609 94.4986 109.968C94.8546 110.743 95.202 111.53 95.4552 112.343C95.599 112.798 95.5203 113.302 94.8939 113.601C94.5671 111.96 94.0331 110.457 92.7 109.34C92.3132 109.427 91.923 109.591 91.5362 109.591H91.4575C90.2647 109.591 89.866 110.481 89.7907 111.618C89.753 112.198 89.907 112.788 89.8814 113.37C89.8471 114.217 89.7291 115.059 89.6435 115.929C88.9607 115.867 88.8871 115.47 88.8802 115.042C88.858 113.396 88.8443 111.749 88.8272 110.04C88.413 109.949 88.0366 109.867 87.6138 109.775ZM85.0434 114.962C84.2425 115.708 83.6709 116.225 83.1216 116.767L82.9641 117.227C83.1506 118.294 83.3646 119.355 83.6059 120.604C84.5266 119.863 85.3497 119.202 86.214 118.504C85.8169 117.337 84.6327 116.545 85.0434 114.962ZM84.1107 106.119C82.5448 106.212 80.9242 105.95 79.4199 106.756C77.125 107.984 75.6121 109.807 75.2322 112.42C75.1484 112.999 75.3109 113.651 75.4992 114.224C75.809 115.169 76.3018 116.062 75.9356 117.156C77.2328 117.366 78.4068 117.631 79.5945 117.713C79.615 117.713 79.6338 117.715 79.6526 117.715C80.089 117.715 80.5836 117.4 80.9824 117.135C83.4279 115.518 84.8244 113.053 86.19 110.574C86.4929 110.024 86.4689 109.749 86.1301 109.085C85.1392 110.8 84.1449 112.475 82.4644 113.596C82.2453 113.108 82.6064 112.821 82.8443 112.506C83.8266 111.205 84.6378 109.816 85.1136 108.19C84.7422 107.972 84.3571 107.878 83.9755 107.878C83.6897 107.878 83.4056 107.931 83.1267 108.024C82.0502 108.383 81.0046 108.835 79.9487 109.249C79.7108 109.343 79.4747 109.443 79.1957 109.555C79.0434 108.962 79.3891 108.768 79.6954 108.559C80.8745 107.755 82.1256 107.108 83.5562 106.893C83.9772 106.829 84.3349 106.763 84.1107 106.119ZM101.804 111.304C100.403 111.508 99.1004 111.696 97.6834 111.903C97.8032 112.634 97.9384 113.452 98.0838 114.351C99.0131 114.02 99.9287 113.805 100.88 113.805C101.382 113.805 101.893 113.865 102.422 114C102.188 112.982 101.993 112.124 101.804 111.304ZM96.0645 107.011C95.9019 107.011 95.7205 107.038 95.6555 107.125C95.5374 107.285 95.4604 107.591 95.5357 107.755C96.0628 108.912 96.9099 109.798 98.012 110.415C98.2875 110.569 98.6435 110.634 98.9669 110.634H98.996C100.743 110.608 101.998 109.658 103.064 108.354C102.573 108.443 102.092 108.482 101.62 108.482C99.8808 108.482 98.2584 107.938 96.6635 107.219C96.5077 107.148 96.3554 107.031 96.1946 107.016C96.1535 107.012 96.1107 107.011 96.0645 107.011ZM90.1963 99.3644C89.2773 99.3644 88.3548 99.6536 87.5214 100.254C87.7593 100.841 87.3828 101.257 87.008 101.666C86.7753 101.919 86.5135 102.145 86.2739 102.393C85.437 103.251 85.016 104.312 85.1409 105.477C85.3275 107.233 86.7821 108.934 88.7279 108.934C88.8392 108.934 88.9504 108.929 89.0633 108.917C90.2989 108.796 91.5311 108.69 92.8591 107.978C92.3029 107.967 91.9504 107.962 91.5979 107.957L91.514 107.748C91.7981 107.531 92.0668 107.288 92.3679 107.098C93.1894 106.578 93.4958 105.826 93.3965 104.889C93.3588 104.548 93.2989 104.206 93.2117 103.874C92.7855 102.248 91.8323 101.596 89.9994 101.543H89.9841C89.8985 101.543 89.8112 101.562 89.7239 101.582C89.6367 101.601 89.5511 101.622 89.4673 101.622C89.4416 101.622 89.4142 101.62 89.3885 101.615C89.1848 101.575 88.899 101.469 88.834 101.315C88.6834 100.963 88.9966 100.826 89.2756 100.778C89.623 100.718 89.9807 100.648 90.3298 100.648C90.388 100.648 90.4461 100.65 90.5026 100.653C92.2276 100.781 93.9133 101.682 94.2984 103.715C94.4678 104.611 94.4832 105.537 94.5602 106.35C95.397 105.607 95.2294 102.729 94.129 101.387C93.0457 100.063 91.6235 99.3644 90.1963 99.3644ZM98.6948 101.036C98.9704 101.036 99.2459 101.043 99.5214 101.054C99.9852 101.072 100.483 101.091 100.945 101.675C100.434 101.683 100.072 101.694 99.7131 101.697C98.6777 101.707 97.6526 101.728 96.6601 102.115C96.1347 102.318 95.9943 102.599 96.0559 103.131C96.138 103.845 96.0902 104.574 96.1928 105.282C96.2339 105.577 96.4684 105.905 96.7097 106.097C97.5807 106.792 98.6212 107.156 99.7986 107.558C99.7011 107.206 99.6275 106.968 99.5659 106.727C99.3092 105.717 99.8329 104.996 100.786 104.996C100.877 104.996 100.971 105.002 101.07 105.015C101.404 105.061 101.729 105.193 102.126 105.304C101.989 105.779 101.856 106.242 101.722 106.704L101.941 106.833C102.451 106.323 102.96 105.814 103.48 105.293C104.219 105.679 103.858 106.532 104.173 107.098C105.345 106.578 106.492 106.068 107.748 105.51C107.541 105.349 107.407 105.216 107.25 105.125C105.942 104.382 104.873 103.443 104.092 102.101C103.321 100.773 102.141 99.7033 100.665 99.2566C100.168 99.1077 99.6652 99.0358 99.1603 99.0358C98.2379 99.0358 97.3172 99.2788 96.4495 99.746C95.996 99.989 95.5511 100.247 95.1318 100.482C95.4091 101.196 95.5134 101.439 95.8249 101.439C95.9533 101.439 96.1175 101.397 96.3434 101.329C97.1204 101.096 97.9059 101.036 98.6948 101.036ZM75.1501 103.496C74.4741 103.864 73.8152 104.247 73.3104 104.916C74.3954 105.734 75.3948 106.487 76.384 107.233C77.1506 106.757 77.9533 106.259 78.9287 105.654C78.1723 105.337 77.5015 105.128 76.9094 104.786C76.2933 104.43 75.7542 103.946 75.1501 103.496ZM81.0097 92.1442C80.6709 92.1442 80.3269 92.1648 79.9778 92.2041C78.6156 92.3581 77.2807 92.7381 75.9305 93.0068C75.4359 93.1043 74.9327 93.1676 74.3714 93.2583C74.4638 93.5458 74.4912 93.7974 74.6162 93.9839C75.6498 95.5618 75.72 97.2766 75.3846 99.0564C75.032 100.937 75.7063 102.46 77.1233 103.639C77.9875 104.36 79.105 104.617 80.2003 104.745C81.4205 104.885 82.6561 104.894 83.8797 104.961C84.0132 104.661 84.1141 104.481 84.1757 104.29C84.554 103.092 84.5112 102.869 83.4227 102.301C82.3275 101.731 81.1741 101.269 80.048 100.757C79.8786 100.682 79.7142 100.591 79.5688 100.424C79.7947 100.391 80.0206 100.376 80.2431 100.376C80.7274 100.376 81.2014 100.453 81.6532 100.615C82.4918 100.918 83.3029 101.302 84.1141 101.675C84.3588 101.786 84.5796 101.962 84.8278 101.962C84.9544 101.962 85.0879 101.918 85.2351 101.795C85.6475 101.452 85.8665 101.06 85.6783 100.532C85.3429 99.5937 85.0228 98.6491 84.631 97.7352C84.2562 96.8624 83.7976 96.0256 83.3013 95.0244C84.3332 95.5122 84.7799 96.296 85.2008 97.114C85.6099 97.9029 86.048 98.6764 86.4878 99.4825C86.9225 99.3935 87.1501 99.2703 87.0388 98.7877C86.7873 97.6822 86.5477 96.5732 86.3697 95.4557C86.2585 94.7643 85.9504 94.2389 85.4439 93.7837C84.1466 92.6166 82.6321 92.1442 81.0097 92.1442ZM94.6732 95.4608C94.0708 96.5749 92.8797 97.2766 92.6794 98.7141C93.2151 99.0102 93.66 99.2566 94.1187 99.5116C94.324 99.3593 94.5225 99.2669 94.6406 99.1146C95.6777 97.7626 96.5129 96.3062 96.7969 94.6017C96.9219 93.8539 96.6172 93.1984 96.227 92.5584C95.2995 91.0319 94.4113 89.4797 93.5043 87.9395L93.2596 87.7546C93.0354 87.972 92.8129 88.2218 92.5562 88.4289C91.6509 89.1631 90.7405 89.8887 89.8198 90.6057C89.6041 90.7734 89.3508 90.8949 89.1147 91.037C87.6789 91.9081 86.9687 93.118 87.2836 94.8413C87.5043 96.0529 87.6857 97.2731 87.9047 98.6029C88.5602 98.5053 89.0822 98.4283 89.7119 98.3325C89.4723 97.6171 89.2568 97.0096 89.0685 96.3952C88.9076 95.8681 88.7365 95.341 88.6475 94.8002C88.5876 94.4289 88.6561 94.0318 89.178 94.0113C89.5733 95.0723 89.9533 96.0974 90.3383 97.1191C90.4239 97.345 90.5112 97.5726 90.631 97.7814C90.8397 98.1528 91.016 98.3308 91.2025 98.3308C91.3942 98.3308 91.5996 98.1408 91.87 97.778C92.3971 97.0678 93.0165 96.4158 93.6515 95.798C93.8859 95.5703 94.2847 95.5104 94.6732 95.4608ZM99.9595 93.6536C99.4341 93.6536 98.9344 93.7734 98.4398 93.8984C98.2892 93.9377 98.1318 94.1756 98.0805 94.3502C97.7433 95.531 97.4335 96.7204 97.1118 97.9183C98.2019 97.8704 99.3126 97.8225 100.451 97.7711C100.576 96.4397 100.697 95.122 100.824 93.7717C100.526 93.6879 100.238 93.6536 99.9595 93.6536ZM85.7159 88.8225C85.2744 89.6166 84.9116 90.3062 84.5146 90.9771C84.2425 91.4391 84.2493 91.7917 84.7422 92.098C85.1991 92.3804 85.6304 92.7073 86.0001 92.964C86.7975 91.9988 87.5283 91.1123 88.3241 90.1488C87.4752 89.7175 86.611 89.2777 85.7159 88.8225Z" fill="#9ED4F1"/>
<path d="M49.6544 116.589C49.4217 116.589 49.1684 116.514 48.8792 116.319C49.0007 116.062 49.117 115.857 49.1975 115.639C49.6544 114.383 50.2945 113.154 50.5135 111.857C51.0406 108.722 52.3618 106.037 54.5454 103.761C55.1667 103.114 55.8289 102.508 56.4673 101.88C57.554 100.812 58.8803 100.299 60.3777 100.239C60.6395 100.229 60.9031 100.225 61.1649 100.225C61.4371 100.225 61.7109 100.23 61.983 100.234C62.2602 100.237 62.5357 100.241 62.8129 100.241C63.0697 100.241 63.3264 100.237 63.5831 100.229C63.6327 100.225 63.6806 100.225 63.7285 100.225C64.9059 100.225 65.8951 100.802 66.8979 101.279C67.2642 101.452 67.5209 102.012 67.6493 102.445C67.7057 102.635 67.3052 102.953 67.1187 103.218C66.7251 103.783 66.2853 104.322 65.955 104.923C65.4912 105.765 65.1284 106.661 64.6869 107.519C64.1837 108.494 63.5523 109.413 63.1398 110.425C62.4211 112.181 61.0948 113.055 59.3115 113.353C58.4302 113.498 57.5318 113.548 56.6436 113.671C54.4753 113.974 52.6031 115.006 50.7788 116.13C50.4125 116.358 50.0634 116.589 49.6544 116.589ZM63.0936 101.183C62.0754 101.183 61.0537 101.214 60.0371 101.266C58.8272 101.329 57.9271 102.055 57.0543 102.796C56.6333 103.152 56.255 103.555 55.8477 103.928C53.8027 105.801 52.5106 108.12 51.8295 110.788C51.6686 111.417 51.6687 112.088 51.5283 112.725C51.3983 113.314 51.1792 113.885 50.9311 114.684C51.4787 114.484 51.8364 114.393 52.1564 114.229C53.4776 113.55 54.8278 112.946 56.3064 112.708C57.222 112.56 58.1496 112.477 59.0703 112.352C60.4633 112.163 61.4541 111.499 62.0976 110.171C63.1193 108.067 64.2847 106.032 65.3868 103.964C65.4638 103.819 65.5066 103.651 65.587 103.439C65.2722 103.311 64.971 103.254 64.6749 103.254C64.3018 103.254 63.9407 103.345 63.5796 103.501C61.8221 104.255 60.1655 105.157 58.9453 106.696C58.7434 106.952 58.4764 107.159 58.2402 107.391L58.0263 107.255L58.0092 106.872C58.1153 106.62 58.2249 106.35 58.4063 106.153C60.1809 104.206 62.1866 102.638 64.9094 102.277C65.2362 102.234 65.5597 102.176 66.044 102.099C65.2568 101.426 64.4798 101.197 63.6549 101.187C63.4684 101.185 63.2819 101.183 63.0936 101.183Z" fill="#9ED4F1"/>
<path d="M34.8005 41.7825C34.1262 41.7825 33.4502 41.6284 32.7725 41.3512C31.3469 40.7676 30.1952 39.7785 28.9836 38.8749C27.6641 37.8891 26.242 37.1652 24.5854 36.9633L24.2893 36.8452C24.2842 36.5663 24.2808 36.2976 24.2756 35.9536C24.4707 35.8629 24.5956 35.8099 24.7172 35.7482C26.3173 34.9593 27.9191 34.1704 29.5175 33.3746C30.3766 32.9468 31.1981 32.4026 32.0965 32.0979C32.9231 31.8173 33.7839 31.7231 34.6499 31.7231C35.1307 31.7231 35.6116 31.7522 36.0874 31.7933C37.2134 31.8909 38.2762 32.2314 39.3133 32.7825C40.8261 33.5919 41.8769 34.8481 42.9636 36.082C43.3623 36.5355 43.6772 37.1036 43.8894 37.6718C44.1547 38.3837 43.8877 38.6524 43.1501 38.7842C42.4844 38.904 41.8101 39.0614 41.1906 39.325C39.6401 39.9838 38.1256 40.73 36.582 41.4043C35.9898 41.6627 35.396 41.7825 34.8005 41.7825ZM35.1632 32.88C34.311 32.88 33.3886 32.9844 32.3772 33.1778C32.0161 33.248 31.6772 33.4687 31.3452 33.6501C29.8427 34.4784 28.3469 35.317 26.7537 36.2052C27.457 36.6193 28.1382 36.9924 28.7868 37.4117C29.4799 37.8583 30.1302 38.37 30.8181 38.8218C31.6515 39.3695 32.4799 39.9308 33.3578 40.4014C33.8027 40.6393 34.2819 40.7796 34.7679 40.7796C35.0982 40.7796 35.4319 40.7146 35.7605 40.5708C37.7166 39.7134 39.6555 38.8184 41.5979 37.9319L41.7468 37.6752C40.1091 36.4242 38.2625 35.6764 36.0977 35.4898C36.3715 34.9148 36.7787 34.8823 37.1621 34.8823H37.2973C38.3241 34.8823 39.2448 35.293 40.1604 35.7003C40.655 35.9228 41.1461 36.1521 41.8204 36.4619C39.8352 33.912 37.8398 32.88 35.1632 32.88Z" fill="#9ED4F1"/>
<path d="M66.5086 72.0921C66.2194 72.0921 65.9234 72.051 65.6478 71.9826C64.248 71.6317 63.0979 70.8343 61.9787 69.9444C60.293 68.6061 58.7289 67.0556 56.5589 66.4635C56.0592 66.3283 55.8316 65.986 55.823 65.4024L56.1482 65.2399C58.3216 65.1081 60.2793 64.2661 62.2748 63.4874C63.7808 62.9004 65.2987 62.5137 66.856 62.5137C67.8572 62.5137 68.8737 62.6745 69.9142 63.0425C72.6712 64.0162 74.4014 66.0237 75.8954 68.3425C76.2667 68.9158 76.0494 69.33 75.4214 69.33C75.3871 69.33 75.3529 69.3283 75.3187 69.3266C75.2348 69.3214 75.1509 69.318 75.0705 69.318C74.1532 69.318 73.342 69.6586 72.5771 70.1018C70.7955 71.1337 68.9011 71.8132 66.8612 72.0716C66.7465 72.0853 66.6284 72.0921 66.5086 72.0921ZM67.5833 63.5508C67.2719 63.5508 66.9587 63.5713 66.6558 63.5918C65.1396 63.6945 63.6644 63.9718 62.2594 64.6067C61.3523 65.0157 60.3906 65.3066 59.4544 65.654C59.2029 65.7464 58.953 65.8525 58.5337 66.0219C59.2799 66.6363 59.9148 67.1839 60.5754 67.6956C61.2257 68.2005 61.9085 68.6643 62.5674 69.1554C62.8155 69.3402 63.0466 69.549 63.2776 69.7561C64.3061 70.6785 65.4493 71.0978 66.6849 71.0978C67.2034 71.0978 67.7374 71.0242 68.2867 70.8822C70.1966 70.3876 71.925 69.4926 73.7579 68.4264C72.5309 67.4355 71.1036 67.3671 69.8013 67.0351C68.4921 66.7014 67.1162 66.6295 65.7248 66.4378C65.9456 66.0408 66.3375 65.9638 66.7038 65.9638C66.7277 65.9638 66.7499 65.9638 66.7739 65.9655C67.9051 65.9911 69.05 65.9757 70.1589 66.164C71.3706 66.3711 72.548 66.7869 73.8503 67.1412C73.71 66.9187 73.6176 66.727 73.4875 66.5713C72.2263 65.0567 70.556 64.1839 68.6992 63.6774C68.3449 63.5816 67.965 63.5508 67.5833 63.5508Z" fill="#9ED4F1"/>
<path d="M87.1007 146.338C86.9193 146.338 86.7139 146.287 86.4795 146.176C86.6027 145.258 86.8098 144.379 86.8252 143.497C86.8645 141.22 86.9621 138.954 87.2684 136.691C87.5748 134.429 88.5981 132.745 90.7459 131.846C91.3157 131.607 91.9044 131.355 92.5085 131.265C93.0681 131.181 93.6295 131.116 94.1891 131.116C94.8856 131.116 95.5787 131.217 96.2598 131.511C96.7698 131.73 96.994 132.038 96.7647 132.548C96.3745 133.426 96.4395 134.367 96.3009 135.281C96.0185 137.129 95.3271 138.798 93.7647 139.974C93.1862 140.408 92.5941 140.824 92.0191 141.264C90.5645 142.376 89.1013 143.48 88.3226 145.227C88.2268 145.445 88.0556 145.628 87.9204 145.828C87.7014 146.152 87.4429 146.338 87.1007 146.338ZM93.8177 132.054C93.4412 132.054 93.075 132.125 92.7173 132.214C92.1184 132.363 91.5228 132.582 90.9769 132.868C89.3956 133.698 88.5896 135.083 88.35 136.814C88.2131 137.804 88.0813 138.796 88.0283 139.792C87.9667 140.949 87.9906 142.113 87.9769 143.354C89.6712 142 91.1737 140.737 92.7396 139.558C94.7076 138.077 95.4812 136.097 95.387 133.705C95.3836 133.613 95.3237 133.52 95.2621 133.352C93.8537 133.748 93.3334 135.153 92.2809 135.947C92.0653 134.946 92.0653 134.946 94.7248 132.214C94.4184 132.098 94.1155 132.054 93.8177 132.054Z" fill="#9ED4F1"/>
<path d="M129.696 53.2452C129.543 52.6034 129.506 51.9548 129.429 51.3114C128.958 47.3735 128.443 43.4426 128.017 39.5013C127.726 36.8077 126.891 34.2543 126.199 31.6617L126.022 31.4306C125.39 31.4546 125.429 31.8824 125.429 32.3137C125.426 34.968 125.416 37.624 125.399 40.2783C125.397 40.5282 125.34 40.7797 125.31 41.0296L125.106 41.0262C125.025 39.5972 124.945 38.1665 124.859 36.7375C124.774 35.3325 124.705 33.9241 124.591 32.5208C124.524 31.6925 124.161 31.073 123.184 31.0302C121.993 32.0604 120.85 33.1471 120.016 34.5265C119.854 34.7969 119.595 35.0108 119.375 35.2435C119.679 34.5419 119.917 33.794 120.323 33.1557C120.838 32.3445 121.498 31.6257 122.101 30.8727C122.515 30.3525 122.441 29.9589 121.871 29.6303C121.707 29.5362 121.545 29.4848 121.385 29.4848C121.219 29.4848 121.059 29.5396 120.901 29.656C120.487 29.964 120.057 30.2618 119.689 30.6194C118.257 32.0193 116.736 33.2892 115.095 34.458C113.419 35.6508 111.952 37.1363 110.402 38.5036C109.642 39.1728 108.901 39.8624 108.153 40.5453C108.066 40.3382 108.087 40.2389 108.146 40.1773C109.047 39.2258 109.916 38.2418 110.864 37.3399C112.136 36.13 113.376 34.8516 114.805 33.8505C116.145 32.9109 117.367 31.8893 118.481 30.705C119.087 30.0598 119.756 29.4746 120.369 28.8893C120.258 28.547 120.16 28.2886 120.09 28.0233C120.022 27.7564 120.008 27.474 119.919 27.2139C119.741 26.6953 119.539 26.4557 119.203 26.4557C119.039 26.4557 118.846 26.5122 118.606 26.6217C117.982 26.9092 117.371 27.2327 116.768 27.5698C115.444 28.3074 114.17 29.158 112.796 29.7843C111.33 30.4534 109.8 31.0199 108.247 31.4477C105.29 32.2641 102.246 32.7586 99.3638 33.8573C99.2406 33.9052 99.09 33.8864 98.7939 33.9138C99.0113 33.7238 99.0763 33.6383 99.1619 33.5955C99.3792 33.4894 99.6034 33.4021 99.8259 33.3063C102.117 32.3137 104.554 31.8054 106.961 31.1979C109.038 30.6742 111.093 30.0906 112.952 28.9765C114.963 27.77 116.974 26.567 118.984 25.3605L119.154 25.2441C119.457 24.9566 119.57 24.6126 119.409 24.2156C119.291 23.9247 119.087 23.834 118.848 23.834C118.752 23.834 118.649 23.8493 118.543 23.8699C118.341 23.911 118.136 23.9383 117.932 23.9777C115.428 24.4672 112.926 24.9669 110.419 25.4443C109.317 25.6548 108.206 25.8191 107.101 26.0039L107.055 25.8003C110.78 24.6777 114.651 24.0958 118.346 22.9937C118.356 21.6999 117.918 20.8699 116.693 20.6098C116.493 20.567 116.303 20.4729 116.106 20.4113C114.458 19.9013 112.81 19.3964 111.164 18.8847C110.903 18.8026 110.578 18.7906 110.453 18.3217C110.789 18.3936 111.022 18.4398 111.251 18.4963C113.328 19.0062 115.403 19.5316 117.482 20.0296C117.749 20.0947 117.935 20.1374 118.076 20.1374C118.391 20.1374 118.486 19.9269 118.784 19.2903C117.458 18.2344 115.885 17.6201 114.376 16.8842C112.839 16.1346 111.198 15.7444 109.551 15.373C107.948 15.0102 106.339 14.6714 104.734 14.3206C106.984 14.4438 109.235 14.4643 111.376 15.2173C113.262 15.8796 115.161 16.4991 117.04 17.1751C118.029 17.5293 118.99 17.964 119.979 18.3696C120.266 17.6782 120.152 17.3206 119.539 17.1238C119.255 17.0348 118.979 16.8414 118.762 16.6326C116.818 14.7484 114.523 13.328 112.329 11.7758C110.164 10.2476 107.832 8.94522 106.045 6.9224C105.27 6.04619 104.448 5.20934 103.647 4.35367C103.312 3.99429 102.978 3.63491 102.643 3.27552L102.829 3.09412C103.61 3.8009 104.453 4.44951 105.158 5.22475C106.68 6.89845 108.413 8.31544 110.33 9.486C113.368 11.3411 116.234 13.4255 119.032 15.6143C119.313 15.8334 119.63 16.0097 119.943 16.2133C120.302 15.5544 120.708 15.0753 120.249 14.3959C118.936 12.4552 117.663 10.4889 116.375 8.53107C115.871 7.76781 115.372 7.00284 114.87 6.23958C115.478 6.72218 115.933 7.30918 116.383 7.89959C117.843 9.81459 119.546 11.5499 120.728 13.6737L120.973 14.0005C121.163 14.0741 121.382 14.1597 121.577 14.1597C121.623 14.1597 121.668 14.1546 121.711 14.1443C121.877 14.1032 122.008 13.8277 122.104 13.6309L122.103 13.2236C121.995 12.0838 122.041 10.9595 122.349 9.84538C122.465 9.42097 122.458 8.9572 122.469 8.51053C122.498 7.41356 122.325 6.30975 122.604 5.21962C122.715 4.78665 122.813 4.35025 122.883 3.90873C123.09 2.60639 123.287 1.30234 123.492 0L124.052 0C123.872 1.78323 123.685 3.56816 123.511 5.3531C123.436 6.1386 123.405 6.92926 123.335 7.71476C123.251 8.6697 123.152 9.62462 123.052 10.5778C122.944 11.6064 122.751 12.6349 123.16 13.826C123.46 12.8608 123.959 12.3987 124.69 12.3987C124.892 12.3987 125.111 12.4347 125.349 12.5048C125.544 12.5613 125.766 12.5236 125.96 12.5784C126.056 12.6058 126.146 12.6212 126.232 12.6212C126.453 12.6212 126.639 12.5254 126.783 12.32C127.129 11.8288 127.627 11.632 128.188 11.5362C128.559 11.4746 128.787 11.2932 128.907 10.9064C129.208 9.94294 129.395 8.97603 129.319 7.95777C129.282 7.44779 129.311 6.92412 129.376 6.41585C129.619 4.46491 129.922 2.52424 130.146 0.57159C130.166 0.379919 130.19 0.18996 130.218 0L130.741 0C130.338 2.69195 130.168 5.41642 130.079 8.14773C130.052 8.99656 129.826 9.84026 129.697 10.6857C129.662 10.9099 129.644 11.1375 129.627 11.2949C130.495 11.7347 131.277 12.1283 132.167 12.5801C132.427 11.2196 132.735 9.88817 133.122 8.58583V13.8551C132.963 13.8345 132.798 13.7712 132.622 13.7165C132.567 13.6993 132.518 13.6908 132.473 13.6908C132.239 13.6908 132.15 13.9184 132.206 14.1956C132.514 14.3257 132.819 14.4506 133.122 14.579V15.7119C132.903 15.498 132.643 15.3474 132.275 15.3474C132.205 15.3474 132.131 15.3525 132.051 15.3645C131.227 15.486 130.49 15.7855 129.593 16.2356C130.666 17.1494 131.707 17.7261 132.821 18.1779C132.917 18.2173 133.006 18.2361 133.088 18.2361H133.122V19.2955C132.985 19.1431 132.795 19.0388 132.564 19.0011L132.134 19.1688L132.175 19.6223C132.448 19.9732 132.757 20.2932 133.122 20.6953V22.2013C133.077 22.3451 133.079 22.5333 133.093 22.8037C133.118 23.3445 133.096 23.8887 133.096 24.4312C133.105 24.4329 133.113 24.4329 133.122 24.4329V28.2253C132.403 28.7575 131.719 29.2624 131.027 29.774C131.168 30.4843 131.66 30.9138 132.237 30.9138C132.523 30.9138 132.828 30.8094 133.122 30.5835V32.0946C132.887 31.9406 132.615 31.8585 132.271 31.8567C131.849 31.855 131.381 31.7301 131.015 31.5179C130.796 31.3913 130.594 31.3245 130.397 31.3245C130.218 31.3245 130.043 31.3793 129.86 31.4922C129.466 31.7387 129.054 31.8448 128.618 31.8448C128.472 31.8448 128.323 31.8328 128.171 31.8105C128.118 31.802 128.065 31.7986 128.01 31.7986C127.827 31.7986 127.62 31.8328 127.344 31.8482C127.7 33.6537 128.085 35.3804 128.378 37.126C128.679 38.9263 128.924 40.7386 129.133 42.5527C129.338 44.3325 129.502 46.1191 129.615 47.9075C129.727 49.6822 129.946 51.4602 129.696 53.2452ZM128.046 28.4495C127.87 28.5487 127.748 28.6103 127.635 28.6839C127.242 28.9372 126.925 29.2333 127.064 29.7706C127.223 30.3799 127.687 30.8368 128.268 30.8368H128.28C128.643 30.8334 129.021 30.7256 129.362 30.5869C129.549 30.5099 129.807 30.2601 129.792 30.1146C129.768 29.8921 129.567 29.6525 129.383 29.4934C129.181 29.3205 128.885 29.2623 128.671 29.0998C128.457 28.9389 128.292 28.713 128.046 28.4495ZM123.535 28.6685C123.307 29.8202 123.786 30.5356 124.851 30.5356C124.89 30.5356 124.928 30.5356 124.967 30.5322C125.221 30.5219 125.501 30.409 125.703 30.2549C125.832 30.1591 125.91 29.8802 125.869 29.7193C125.832 29.5755 125.619 29.4369 125.455 29.3719C124.842 29.1272 124.218 28.9149 123.535 28.6685ZM132.028 27.5031C131.01 27.5886 130.129 27.6622 129.143 27.7461C129.17 28.3194 129.403 28.5658 129.843 28.5898C129.946 28.5949 130.047 28.5983 130.148 28.5983C130.875 28.5983 131.546 28.4221 132.028 27.5031ZM121.308 27.154C120.939 28.1363 121.76 28.1175 122.257 28.4597C122.513 28.0935 122.724 27.7889 123.013 27.373C122.4 27.2943 121.851 27.2241 121.308 27.154ZM124.613 27.5287C124.565 28.0062 124.846 28.2937 125.246 28.2937C125.257 28.2937 125.268 28.2937 125.28 28.292C125.82 28.2715 126.352 28.0798 126.886 27.9617L126.814 27.8505C126.1 27.7461 125.385 27.6417 124.613 27.5287ZM126.112 24.8796C125.953 24.8796 125.802 24.9754 125.647 25.1722L125.433 25.5196C125.253 25.8379 124.947 26.1443 125.222 26.5396C125.428 26.8339 125.722 26.9623 126.04 26.9623C126.131 26.9623 126.223 26.952 126.316 26.9315C126.899 26.8048 127.481 26.6406 127.899 26.2641C127.42 25.8465 126.995 25.4854 126.583 25.114C126.41 24.9583 126.256 24.8796 126.112 24.8796ZM129.567 25.5248L129.429 25.7575C129.316 26.6183 129.376 26.8647 129.975 26.8647C130.117 26.8647 130.29 26.8511 130.5 26.8271C131.628 26.7039 131.811 26.567 132.02 25.5949C131.178 25.571 130.355 25.547 129.567 25.5248ZM121.57 23.247C121.238 23.5173 121.018 23.6166 120.923 23.786C119.999 25.4717 120.307 26.0724 122.207 26.3C122.366 26.3188 122.527 26.3394 122.689 26.3394C122.996 26.3394 123.306 26.2641 123.607 25.9492C123.242 25.8687 122.994 25.7952 122.741 25.7626C121.798 25.6428 121.401 25.1911 121.456 24.2618C121.471 24 121.514 23.7398 121.57 23.247ZM127.801 24.2378C127.406 24.7273 127.563 24.8933 128.118 25.0918C127.988 24.741 127.914 24.5442 127.801 24.2378ZM122.797 23.3359L122.616 23.5533C122.578 23.9794 122.405 24.4997 122.585 24.8163C122.693 25.0062 122.852 25.0695 123.032 25.0695C123.282 25.0695 123.569 24.948 123.81 24.8813C124.202 24.7752 124.747 24.8556 124.849 24.1386C124.132 23.8579 123.475 23.6012 122.797 23.3359ZM131.554 23.2025C131.448 23.2025 131.328 23.2179 131.2 23.2384C131.094 23.7278 131.003 24.1471 130.911 24.5681C131.619 24.5116 132.085 24.1403 132.033 23.6337C131.998 23.2932 131.814 23.2025 131.554 23.2025ZM129.555 22.6942C129.294 22.6942 129.085 22.8157 128.979 23.0878C128.785 23.5824 128.832 24.0907 129.381 24.5168C130.146 24.0513 130.17 23.4643 129.949 22.7712C129.81 22.7199 129.677 22.6942 129.555 22.6942ZM126.583 21.7718C126.198 21.7718 125.825 22.1329 125.744 22.6018C125.657 23.1101 125.897 23.6269 126.261 23.7159C126.299 23.7261 126.34 23.7296 126.381 23.7296C126.783 23.7296 127.254 23.2863 127.329 22.7969C127.389 22.393 127.002 21.8111 126.644 21.7752C126.624 21.7718 126.603 21.7718 126.583 21.7718ZM123.997 20.4489C123.047 21.575 123.138 22.1414 124.403 22.9988C124.608 22.4615 124.803 21.9532 125.019 21.3884C124.682 21.077 124.365 20.7877 123.997 20.4489ZM120.227 19.6257C119.544 20.0211 119.123 20.8904 119.323 21.6417C119.447 22.1021 119.435 22.7421 120.097 22.7763C120.145 21.6177 120.186 20.6235 120.227 19.6257ZM122.061 19.2955C121.651 19.2955 121.343 19.6377 121.201 20.3257C121.124 20.6953 121.112 21.0787 121.081 21.4569C121.033 22.0576 121.351 22.3262 121.971 22.4204C122.315 21.4586 122.623 20.5961 122.941 19.7028C122.618 19.4307 122.32 19.2955 122.061 19.2955ZM131.337 20.4164C131.061 20.4164 130.688 20.5601 130.551 20.7604C130.305 21.1215 130.848 22.0593 131.296 22.1774C131.368 22.1962 131.431 22.2047 131.489 22.2047C131.754 22.2047 131.883 22.0148 131.914 21.705C132.064 21.1061 131.852 20.4643 131.405 20.4198C131.385 20.4181 131.361 20.4164 131.337 20.4164ZM128.847 20.377C128.498 20.377 128.077 20.7963 127.986 21.2704C127.914 21.6434 128.068 21.8608 128.438 21.9429C128.517 21.96 128.595 21.9686 128.672 21.9686C129.075 21.9686 129.424 21.7376 129.506 21.3816C129.598 20.9777 129.33 20.4951 128.953 20.3907C128.919 20.3822 128.883 20.377 128.847 20.377ZM126.174 18.5082C125.589 18.5082 125.166 18.7735 125.067 19.2236C124.913 19.9235 125.436 20.6372 126.211 20.7843C126.36 20.8134 126.496 20.8271 126.619 20.8271C127.122 20.8271 127.409 20.5927 127.48 20.1255C127.574 19.4854 127.019 18.6058 126.473 18.5305C126.369 18.5151 126.27 18.5082 126.174 18.5082ZM129.802 17.8066C129.456 17.8066 129.119 17.9332 128.886 18.2019C128.686 18.4346 128.486 18.8265 128.547 19.0798C128.611 19.3314 129.004 19.5008 129.333 19.7729C129.84 19.5932 130.332 19.4717 130.77 19.2441C131.051 19.0987 131.176 18.7701 130.978 18.4415C130.731 18.0308 130.26 17.8066 129.802 17.8066ZM124.601 16.2167C124.296 16.2167 124.052 16.3382 123.85 16.5744C123.299 17.2127 123.316 17.7672 123.934 18.6007C124.409 18.2242 124.925 17.8887 125.342 17.4575C125.549 17.2436 125.575 16.8568 125.676 16.5693C125.25 16.3314 124.897 16.2167 124.601 16.2167ZM122.361 15.0376C122.159 15.0376 121.952 15.1625 121.69 15.4021C121.314 15.7478 121.125 16.1671 121.144 16.6754C121.149 16.8448 121.173 17.0142 121.201 17.1837C121.254 17.5139 121.315 17.8442 121.382 18.2361C121.743 18.2738 122.067 18.308 122.506 18.3542C122.191 17.2418 122.809 16.458 123.181 15.6195C122.852 15.2259 122.609 15.0376 122.361 15.0376ZM127.603 16.2458C127.51 16.2458 127.413 16.2578 127.308 16.2835C126.733 16.4221 126.655 16.9047 126.531 17.4044C126.92 17.5927 127.254 17.7535 127.685 17.9623C127.991 17.6354 128.308 17.3 128.636 16.9509C128.351 16.4991 128.027 16.2458 127.603 16.2458ZM127.964 14.1837C127.712 14.1837 127.456 14.2213 127.19 14.3035C126.706 14.4523 126.312 14.6971 126.341 15.2841C127.019 15.3696 127.596 15.4107 128.156 15.5219C128.361 15.563 128.522 15.5887 128.659 15.5887C129.054 15.5887 129.241 15.3713 129.629 14.6628C129.085 14.377 128.539 14.1837 127.964 14.1837ZM124.966 13.3023C124.853 13.3023 124.741 13.34 124.639 13.4272C124.291 13.7216 124.13 14.2675 123.976 14.733C123.946 14.8237 124.295 15.1198 124.514 15.1968C124.63 15.2379 124.755 15.2669 124.875 15.2669C125.08 15.2669 125.27 15.1814 125.383 14.9195C125.541 14.5533 125.676 14.1734 125.832 13.7695C125.561 13.5402 125.253 13.3023 124.966 13.3023ZM128.881 12.4176C128.39 12.4176 128.046 12.6144 127.745 13.0422C128.274 13.1859 128.79 13.3194 129.306 13.4649C129.79 13.6018 130.272 13.7507 130.758 13.8962C130.704 13.0456 130.485 12.7701 129.706 12.5527C129.389 12.4637 129.117 12.4176 128.881 12.4176ZM119.351 35.2983L119.346 35.2949L119.337 35.2829C119.349 35.2709 119.361 35.2572 119.375 35.2435C119.366 35.2623 119.357 35.2812 119.351 35.2983Z" fill="#9ED4F1"/>
<path d="M61.849 30.0697C61.5958 30.0697 61.3271 30.0389 61.0105 30.0303L61.2381 29.7976C61.6454 29.7377 62.0544 29.6675 62.4669 29.6435C66.6973 29.4005 70.8884 28.8221 75.0812 28.2368C76.3031 28.0657 77.5421 28.0143 78.7743 27.9117C78.509 27.987 78.2455 28.0794 77.9734 28.1187C75.4543 28.4815 72.9369 28.8717 70.4092 29.1798C67.642 29.5152 64.8661 29.777 62.0921 30.0577C62.0116 30.0662 61.9312 30.0697 61.849 30.0697ZM78.7743 27.9117C78.8034 27.9031 78.8325 27.8963 78.8616 27.8877L78.8701 27.9031C78.8376 27.9065 78.8068 27.9099 78.7743 27.9117Z" fill="#9ED4F1"/>
<path d="M78.857 27.8043L78.8484 27.7889C78.8723 27.7872 78.898 27.7855 78.922 27.7855C78.8997 27.7924 78.8792 27.7992 78.857 27.8043ZM78.922 27.7855C79.2574 27.6794 79.5877 27.5425 79.9317 27.4895C81.5626 27.2464 83.1952 27.0291 84.8295 26.8066C85.3036 26.7416 85.7811 26.6971 86.2586 26.644C86.0857 26.8751 85.894 26.9333 85.6989 26.9606C83.9602 27.2071 82.2232 27.4586 80.4828 27.6863C79.9676 27.753 79.4439 27.7564 78.922 27.7855Z" fill="#9ED4F1"/>
<path d="M82.2083 36.8632L82.1638 36.6475C82.6704 36.5158 83.1769 36.384 83.6835 36.2505L83.7348 36.4969C83.2368 36.6818 82.7234 36.7759 82.2083 36.8632Z" fill="#9ED4F1"/>
<path d="M68.0312 13.9459L68.0193 13.9288C68.0296 13.9254 68.0381 13.9237 68.0484 13.9203C68.0415 13.9288 68.0364 13.9374 68.0312 13.9459ZM68.0484 13.9203C68.2315 13.6447 68.4608 13.4907 68.8356 13.4907C68.9725 13.4907 69.1299 13.5113 69.3113 13.554C68.7517 13.7166 68.3975 13.8193 68.0484 13.9203Z" fill="#9ED4F1"/>
</svg>
